Pacifico-Regular.ufo
<glyph name="parenleft" format="1">
  <advance width="1377"/>
  <unicode hex="0028"/>
  <outline>
    <contour>
      <point x="1262" y="-282" type="curve" smooth="yes"/>
      <point x="1262" y="-371"/>
      <point x="1112" y="-378"/>
      <point x="1040" y="-378" type="curve" smooth="yes"/>
      <point x="610" y="-378"/>
      <point x="374" y="-52"/>
      <point x="374" y="410" type="curve" smooth="yes"/>
      <point x="374" y="1001"/>
      <point x="697" y="1643"/>
      <point x="1258" y="1898" type="curve" smooth="yes"/>
      <point x="1288" y="1911"/>
      <point x="1313" y="1917"/>
      <point x="1335" y="1917" type="curve" smooth="yes"/>
      <point x="1380" y="1917"/>
      <point x="1406" y="1892"/>
      <point x="1406" y="1854" type="curve" smooth="yes"/>
      <point x="1406" y="1804"/>
      <point x="1354" y="1744"/>
      <point x="1258" y="1674" type="curve" smooth="yes"/>
      <point x="846" y="1375"/>
      <point x="630" y="866"/>
      <point x="630" y="430" type="curve" smooth="yes"/>
      <point x="630" y="103"/>
      <point x="741" y="-141"/>
      <point x="1034" y="-191" type="curve" smooth="yes"/>
      <point x="1147" y="-210"/>
      <point x="1262" y="-189"/>
    </contour>
  </outline>
</glyph>
<glyph name="parenright" format="1">
  <advance width="1377"/>
  <unicode hex="0029"/>
  <outline>
    <contour>
      <point x="538" y="1917" type="curve" smooth="yes"/>
      <point x="489" y="1917"/>
      <point x="453" y="1886"/>
      <point x="453" y="1837" type="curve" smooth="yes"/>
      <point x="453" y="1791"/>
      <point x="492" y="1736"/>
      <point x="564" y="1674" type="curve" smooth="yes"/>
      <point x="834" y="1442"/>
      <point x="960" y="1085"/>
      <point x="960" y="733" type="curve" smooth="yes"/>
      <point x="960" y="262"/>
      <point x="771" y="-129"/>
      <point x="392" y="-191" type="curve" smooth="yes"/>
      <point x="278" y="-210"/>
      <point x="142" y="-187"/>
      <point x="142" y="-297" type="curve" smooth="yes"/>
      <point x="142" y="-372"/>
      <point x="277" y="-378"/>
      <point x="345" y="-378" type="curve" smooth="yes"/>
      <point x="884" y="-378"/>
      <point x="1218" y="130"/>
      <point x="1218" y="769" type="curve" smooth="yes"/>
      <point x="1218" y="1244"/>
      <point x="1017" y="1694"/>
      <point x="612" y="1898" type="curve" smooth="yes"/>
      <point x="585" y="1911"/>
      <point x="560" y="1917"/>
    </contour>
  </outline>
</glyph>
<glyph name="slash" format="1">
  <advance width="1248"/>
  <unicode hex="002F"/>
  <outline>
    <contour>
      <point x="341" y="-33" type="curve" smooth="yes"/>
      <point x="269" y="-33"/>
      <point x="222" y="-18"/>
      <point x="222" y="55" type="curve" smooth="yes"/>
      <point x="222" y="152"/>
      <point x="266" y="210"/>
      <point x="304" y="295" type="curve" smooth="yes"/>
      <point x="507" y="755"/>
      <point x="720" y="1239"/>
      <point x="928" y="1696" type="curve" smooth="yes"/>
      <point x="968" y="1782"/>
      <point x="1059" y="1856"/>
      <point x="1184" y="1856" type="curve" smooth="yes"/>
      <point x="1240" y="1856"/>
      <point x="1248" y="1814"/>
      <point x="1248" y="1760" type="curve" smooth="yes"/>
      <point x="1248" y="1714"/>
      <point x="1212" y="1659"/>
      <point x="1196" y="1622" type="curve" smooth="yes"/>
      <point x="966" y="1119"/>
      <point x="766" y="563"/>
      <point x="514" y="64" type="curve" smooth="yes"/>
      <point x="482" y="2"/>
      <point x="432" y="-33"/>
    </contour>
  </outline>
</glyph>
<glyph name="A" format="1">
  <advance width="1652"/>
  <unicode hex="0041"/>
  <outline>
    <contour>
      <point x="428" y="456" type="curve" smooth="yes"/>
      <point x="428" y="281"/>
      <point x="491" y="160"/>
      <point x="660" y="160" type="curve" smooth="yes"/>
      <point x="962" y="160"/>
      <point x="1138" y="505"/>
      <point x="1203" y="745" type="curve" smooth="yes"/>
      <point x="1411" y="1517" type="line"/>
      <point x="1369" y="1529"/>
      <point x="1318" y="1536"/>
      <point x="1266" y="1536" type="curve" smooth="yes"/>
      <point x="986" y="1536"/>
      <point x="804" y="1309"/>
      <point x="684" y="1138" type="curve" smooth="yes"/>
      <point x="562" y="964"/>
      <point x="428" y="733"/>
    </contour>
    <contour>
      <point x="1423" y="344" type="curve" smooth="yes"/>
      <point x="1423" y="314" type="line" smooth="yes"/>
      <point x="1423" y="276"/>
      <point x="1426" y="238"/>
      <point x="1459" y="238" type="curve" smooth="yes"/>
      <point x="1597" y="238"/>
      <point x="1735" y="365"/>
      <point x="1833" y="419" type="curve"/>
      <point x="1884" y="224" type="line"/>
      <point x="1776" y="111"/>
      <point x="1592" y="-32"/>
      <point x="1380" y="-32" type="curve" smooth="yes"/>
      <point x="1240" y="-32"/>
      <point x="1196" y="88"/>
      <point x="1196" y="236" type="curve" smooth="yes"/>
      <point x="1196" y="293"/>
      <point x="1205" y="345"/>
      <point x="1214" y="399" type="curve"/>
      <point x="1105" y="179"/>
      <point x="915" y="-64"/>
      <point x="603" y="-64" type="curve" smooth="yes"/>
      <point x="308" y="-64"/>
      <point x="140" y="149"/>
      <point x="140" y="450" type="curve" smooth="yes"/>
      <point x="140" y="899"/>
      <point x="395" y="1243"/>
      <point x="642" y="1460" type="curve" smooth="yes"/>
      <point x="802" y="1601"/>
      <point x="1012" y="1728"/>
      <point x="1301" y="1728" type="curve" smooth="yes"/>
      <point x="1351" y="1728"/>
      <point x="1403" y="1720"/>
      <point x="1403" y="1675" type="curve" smooth="yes"/>
      <point x="1403" y="1670"/>
      <point x="1402" y="1664"/>
      <point x="1402" y="1660" type="curve" smooth="yes"/>
      <point x="1402" y="1655" type="line"/>
      <point x="1496" y="1599"/>
      <point x="1601" y="1659"/>
      <point x="1634" y="1519" type="curve" smooth="yes"/>
      <point x="1641" y="1489"/>
      <point x="1644" y="1448"/>
      <point x="1644" y="1397" type="curve" smooth="yes"/>
      <point x="1644" y="1064"/>
      <point x="1508" y="777"/>
      <point x="1430" y="505" type="curve"/>
      <point x="1426" y="448"/>
      <point x="1423" y="403"/>
    </contour>
  </outline>
</glyph>
<glyph name="C" format="1">
  <advance width="1480"/>
  <unicode hex="0043"/>
  <outline>
    <contour>
      <point x="1619" y="431" type="curve" smooth="yes"/>
      <point x="1621" y="437"/>
      <point x="1622" y="442"/>
      <point x="1622" y="447" type="curve" smooth="yes"/>
      <point x="1622" y="483"/>
      <point x="1580" y="505"/>
      <point x="1551" y="505" type="curve" smooth="yes"/>
      <point x="1538" y="505"/>
      <point x="1526" y="502"/>
      <point x="1516" y="493" type="curve" smooth="yes"/>
      <point x="1303" y="285"/>
      <point x="1103" y="64"/>
      <point x="750" y="64" type="curve" smooth="yes"/>
      <point x="500" y="64"/>
      <point x="384" y="231"/>
      <point x="384" y="502" type="curve" smooth="yes"/>
      <point x="384" y="914"/>
      <point x="651" y="1568"/>
      <point x="1088" y="1568" type="curve" smooth="yes"/>
      <point x="1232" y="1568"/>
      <point x="1312" y="1486"/>
      <point x="1312" y="1344" type="curve" smooth="yes"/>
      <point x="1312" y="1134"/>
      <point x="1150" y="960"/>
      <point x="945" y="960" type="curve" smooth="yes"/>
      <point x="844" y="960"/>
      <point x="775" y="949"/>
      <point x="775" y="870" type="curve" smooth="yes"/>
      <point x="775" y="758"/>
      <point x="835" y="736"/>
      <point x="961" y="736" type="curve" smooth="yes"/>
      <point x="1268" y="736"/>
      <point x="1536" y="1049"/>
      <point x="1536" y="1363" type="curve" smooth="yes"/>
      <point x="1536" y="1617"/>
      <point x="1371" y="1792"/>
      <point x="1123" y="1792" type="curve" smooth="yes"/>
      <point x="515" y="1792"/>
      <point x="96" y="1096"/>
      <point x="96" y="482" type="curve" smooth="yes"/>
      <point x="96" y="9"/>
      <point x="370" y="-175"/>
      <point x="687" y="-175" type="curve" smooth="yes"/>
      <point x="1065" y="-175"/>
      <point x="1505" y="86"/>
    </contour>
  </outline>
</glyph>
<glyph name="D" format="1">
  <advance width="1430"/>
  <unicode hex="0044"/>
  <outline>
    <contour>
      <point x="-41" y="1134" type="curve" smooth="yes"/>
      <point x="-95" y="1134"/>
      <point x="-116" y="1187"/>
      <point x="-116" y="1229" type="curve" smooth="yes"/>
      <point x="-116" y="1322"/>
      <point x="-42" y="1451"/>
      <point x="-26" y="1470" type="curve" smooth="yes"/>
      <point x="121" y="1645"/>
      <point x="307" y="1736"/>
      <point x="579" y="1736" type="curve" smooth="yes"/>
      <point x="1087" y="1736"/>
      <point x="1438" y="1528"/>
      <point x="1438" y="1028" type="curve" smooth="yes"/>
      <point x="1438" y="521"/>
      <point x="1171" y="126"/>
      <point x="801" y="-14" type="curve" smooth="yes"/>
      <point x="721" y="-44"/>
      <point x="635" y="-60"/>
      <point x="542" y="-60" type="curve" smooth="yes"/>
      <point x="406" y="-60"/>
      <point x="285" y="-19"/>
      <point x="192" y="24" type="curve" smooth="yes"/>
      <point x="162" y="38"/>
      <point x="154" y="51"/>
      <point x="154" y="93" type="curve" smooth="yes"/>
      <point x="154" y="590"/>
      <point x="199" y="1061"/>
      <point x="402" y="1359" type="curve"/>
      <point x="449" y="1392"/>
      <point x="492" y="1408"/>
      <point x="531" y="1408" type="curve" smooth="yes"/>
      <point x="580" y="1408"/>
      <point x="620" y="1381"/>
      <point x="653" y="1326" type="curve"/>
      <point x="485" y="1100"/>
      <point x="414" y="624"/>
      <point x="414" y="258" type="curve" smooth="yes"/>
      <point x="414" y="169"/>
      <point x="421" y="128"/>
      <point x="510" y="128" type="curve" smooth="yes"/>
      <point x="893" y="128"/>
      <point x="1100" y="502"/>
      <point x="1171" y="814" type="curve" smooth="yes"/>
      <point x="1186" y="882"/>
      <point x="1194" y="946"/>
      <point x="1194" y="1009" type="curve" smooth="yes"/>
      <point x="1194" y="1336"/>
      <point x="947" y="1507"/>
      <point x="590" y="1507" type="curve" smooth="yes"/>
      <point x="457" y="1507"/>
      <point x="282" y="1470"/>
      <point x="150" y="1330" type="curve" smooth="yes"/>
      <point x="98" y="1275"/>
      <point x="23" y="1134"/>
    </contour>
  </outline>
</glyph>
<glyph name="E" format="1">
  <advance width="1475"/>
  <unicode hex="0045"/>
  <outline>
    <contour>
      <point x="352" y="390" type="curve" smooth="yes"/>
      <point x="352" y="199"/>
      <point x="457" y="114"/>
      <point x="645" y="114" type="curve" smooth="yes"/>
      <point x="971" y="114"/>
      <point x="1249" y="264"/>
      <point x="1458" y="517" type="curve"/>
      <point x="1565" y="634"/>
      <point x="1562" y="331"/>
      <point x="1527" y="290" type="curve"/>
      <point x="1334" y="74"/>
      <point x="1023" y="-96"/>
      <point x="637" y="-96" type="curve" smooth="yes"/>
      <point x="316" y="-96"/>
      <point x="64" y="44"/>
      <point x="64" y="364" type="curve" smooth="yes"/>
      <point x="64" y="717"/>
      <point x="339" y="878"/>
      <point x="696" y="887" type="curve"/>
      <point x="437" y="887"/>
      <point x="260" y="1026"/>
      <point x="260" y="1280" type="curve" smooth="yes"/>
      <point x="260" y="1602"/>
      <point x="593" y="1726"/>
      <point x="912" y="1726" type="curve" smooth="yes"/>
      <point x="1212" y="1726"/>
      <point x="1582" y="1603"/>
      <point x="1533" y="1318" type="curve" smooth="yes"/>
      <point x="1517" y="1226"/>
      <point x="1407" y="1124"/>
      <point x="1316" y="1124" type="curve" smooth="yes"/>
      <point x="1302" y="1124"/>
      <point x="1295" y="1136"/>
      <point x="1295" y="1161" type="curve"/>
      <point x="1341" y="1376" type="line"/>
      <point x="1241" y="1457"/>
      <point x="1037" y="1501"/>
      <point x="859" y="1501" type="curve" smooth="yes"/>
      <point x="679" y="1501"/>
      <point x="522" y="1445"/>
      <point x="522" y="1266" type="curve" smooth="yes"/>
      <point x="522" y="1009"/>
      <point x="849" y="1070"/>
      <point x="985" y="950" type="curve" smooth="yes"/>
      <point x="1020" y="919"/>
      <point x="1024" y="873"/>
      <point x="1024" y="811" type="curve" smooth="yes"/>
      <point x="1024" y="734"/>
      <point x="1000" y="704"/>
      <point x="921" y="704" type="curve" smooth="yes"/>
      <point x="883" y="704"/>
      <point x="823" y="710"/>
      <point x="783" y="710" type="curve" smooth="yes"/>
      <point x="565" y="710"/>
      <point x="352" y="607"/>
    </contour>
  </outline>
</glyph>
<glyph name="G" format="1">
  <advance width="1536"/>
  <unicode hex="0047"/>
  <outline>
    <contour>
      <point x="1216" y="644" type="curve" smooth="yes"/>
      <point x="1440" y="644"/>
      <point x="1536" y="562"/>
      <point x="1536" y="341" type="curve" smooth="yes"/>
      <point x="1536" y="-117"/>
      <point x="1419" y="-536"/>
      <point x="1110" y="-688" type="curve" smooth="yes"/>
      <point x="1046" y="-720"/>
      <point x="972" y="-736"/>
      <point x="889" y="-736" type="curve" smooth="yes"/>
      <point x="769" y="-736"/>
      <point x="575" y="-702"/>
      <point x="575" y="-585" type="curve" smooth="yes"/>
      <point x="575" y="-520"/>
      <point x="619" y="-441"/>
      <point x="685" y="-441" type="curve" smooth="yes"/>
      <point x="790" y="-441"/>
      <point x="847" y="-512"/>
      <point x="960" y="-512" type="curve" smooth="yes"/>
      <point x="1140" y="-512"/>
      <point x="1232" y="-129"/>
      <point x="1269" y="25" type="curve"/>
      <point x="1126" y="-106"/>
      <point x="964" y="-192"/>
      <point x="685" y="-192" type="curve" smooth="yes"/>
      <point x="315" y="-192"/>
      <point x="96" y="111"/>
      <point x="96" y="482" type="curve" smooth="yes"/>
      <point x="96" y="993"/>
      <point x="345" y="1356"/>
      <point x="653" y="1564" type="curve" smooth="yes"/>
      <point x="787" y="1654"/>
      <point x="956" y="1730"/>
      <point x="1160" y="1730" type="curve" smooth="yes"/>
      <point x="1410" y="1730"/>
      <point x="1535" y="1570"/>
      <point x="1535" y="1316" type="curve" smooth="yes"/>
      <point x="1535" y="1205"/>
      <point x="1476" y="1063"/>
      <point x="1373" y="1063" type="curve" smooth="yes"/>
      <point x="1312" y="1063"/>
      <point x="1275" y="1128"/>
      <point x="1275" y="1190" type="curve" smooth="yes"/>
      <point x="1275" y="1248"/>
      <point x="1312" y="1281"/>
      <point x="1312" y="1341" type="curve" smooth="yes"/>
      <point x="1312" y="1455"/>
      <point x="1262" y="1541"/>
      <point x="1158" y="1541" type="curve" smooth="yes"/>
      <point x="929" y="1541"/>
      <point x="761" y="1389"/>
      <point x="648" y="1254" type="curve" smooth="yes"/>
      <point x="493" y="1070"/>
      <point x="384" y="809"/>
      <point x="384" y="472" type="curve" smooth="yes"/>
      <point x="384" y="220"/>
      <point x="500" y="64"/>
      <point x="750" y="64" type="curve" smooth="yes"/>
      <point x="978" y="64"/>
      <point x="1147" y="131"/>
      <point x="1291" y="226" type="curve"/>
      <point x="1300" y="259"/>
      <point x="1311" y="296"/>
      <point x="1311" y="334" type="curve" smooth="yes"/>
      <point x="1311" y="403"/>
      <point x="1278" y="420"/>
      <point x="1210" y="420" type="curve" smooth="yes"/>
      <point x="1130" y="420"/>
      <point x="1055" y="458"/>
      <point x="1055" y="535" type="curve" smooth="yes"/>
      <point x="1055" y="613"/>
      <point x="1134" y="644"/>
    </contour>
  </outline>
</glyph>
<glyph name="J" format="1">
  <advance width="1362"/>
  <unicode hex="004A"/>
  <outline>
    <contour>
      <point x="796" y="1772" type="curve" smooth="yes"/>
      <point x="602" y="1772"/>
      <point x="470" y="1506"/>
      <point x="470" y="1304" type="curve" smooth="yes"/>
      <point x="470" y="1046"/>
      <point x="676" y="924"/>
      <point x="947" y="725" type="curve"/>
      <point x="971" y="919"/>
      <point x="984" y="1122"/>
      <point x="984" y="1344" type="curve" smooth="yes"/>
      <point x="984" y="1527"/>
      <point x="962" y="1772"/>
    </contour>
    <contour>
      <point x="152" y="-320" type="curve" smooth="yes"/>
      <point x="152" y="-434"/>
      <point x="193" y="-527"/>
      <point x="296" y="-527" type="curve" smooth="yes"/>
      <point x="434" y="-527"/>
      <point x="538" y="-398"/>
      <point x="613" y="-290" type="curve"/>
      <point x="756" y="-89"/>
      <point x="855" y="178"/>
      <point x="920" y="486" type="curve"/>
      <point x="911" y="486" type="line" smooth="yes"/>
      <point x="531" y="486"/>
      <point x="152" y="48"/>
    </contour>
    <contour>
      <point x="267" y="-760" type="curve" smooth="yes"/>
      <point x="4" y="-760"/>
      <point x="-104" y="-527"/>
      <point x="-104" y="-256" type="curve" smooth="yes"/>
      <point x="-104" y="281"/>
      <point x="357" y="572"/>
      <point x="752" y="619" type="curve"/>
      <point x="537" y="759"/>
      <point x="216" y="965"/>
      <point x="216" y="1280" type="curve" smooth="yes"/>
      <point x="216" y="1618"/>
      <point x="391" y="1875"/>
      <point x="640" y="1963" type="curve" smooth="yes"/>
      <point x="685" y="1979"/>
      <point x="730" y="1987"/>
      <point x="775" y="1987" type="curve" smooth="yes"/>
      <point x="1146" y="1987"/>
      <point x="1240" y="1545"/>
      <point x="1240" y="1152" type="curve" smooth="yes"/>
      <point x="1240" y="938"/>
      <point x="1225" y="744"/>
      <point x="1195" y="562" type="curve"/>
      <point x="1315" y="487"/>
      <point x="1475" y="426"/>
      <point x="1577" y="328" type="curve" smooth="yes"/>
      <point x="1586" y="320"/>
      <point x="1590" y="313"/>
      <point x="1590" y="306" type="curve" smooth="yes"/>
      <point x="1590" y="268"/>
      <point x="1517" y="236"/>
      <point x="1477" y="236" type="curve"/>
      <point x="1360" y="239"/>
      <point x="1252" y="301"/>
      <point x="1151" y="361" type="curve"/>
      <point x="1054" y="-58"/>
      <point x="882" y="-427"/>
      <point x="592" y="-640" type="curve"/>
      <point x="503" y="-704"/>
      <point x="398" y="-760"/>
    </contour>
  </outline>
</glyph>
<glyph name="Q" format="1">
  <advance width="1612"/>
  <unicode hex="0051"/>
  <outline>
    <contour>
      <point x="383" y="577" type="curve" smooth="yes"/>
      <point x="383" y="310"/>
      <point x="511" y="64"/>
      <point x="766" y="64" type="curve" smooth="yes"/>
      <point x="1195" y="64"/>
      <point x="1344" y="717"/>
      <point x="1344" y="1132" type="curve" smooth="yes"/>
      <point x="1344" y="1395"/>
      <point x="1271" y="1664"/>
      <point x="1014" y="1664" type="curve" smooth="yes"/>
      <point x="593" y="1664"/>
      <point x="383" y="1016"/>
    </contour>
    <contour>
      <point x="996" y="1856" type="curve" smooth="yes"/>
      <point x="1433" y="1856"/>
      <point x="1632" y="1507"/>
      <point x="1632" y="1064" type="curve" smooth="yes"/>
      <point x="1632" y="498"/>
      <point x="1375" y="-79"/>
      <point x="870" y="-138" type="curve"/>
      <point x="950" y="-226"/>
      <point x="1019" y="-394"/>
      <point x="1165" y="-394" type="curve" smooth="yes"/>
      <point x="1279" y="-394"/>
      <point x="1367" y="-299"/>
      <point x="1423" y="-233" type="curve"/>
      <point x="1434" y="-225"/>
      <point x="1444" y="-223"/>
      <point x="1460" y="-223" type="curve" smooth="yes"/>
      <point x="1523" y="-223"/>
      <point x="1552" y="-367"/>
      <point x="1552" y="-367" type="curve"/>
      <point x="1430" y="-539"/>
      <point x="1232" y="-653"/>
      <point x="1072" y="-653" type="curve" smooth="yes"/>
      <point x="829" y="-653"/>
      <point x="769" y="-426"/>
      <point x="712" y="-252" type="curve" smooth="yes"/>
      <point x="680" y="-155" type="line"/>
      <point x="294" y="-90"/>
      <point x="96" y="200"/>
      <point x="96" y="628" type="curve" smooth="yes"/>
      <point x="96" y="1236"/>
      <point x="438" y="1856"/>
    </contour>
  </outline>
</glyph>
<glyph name="X" format="1">
  <advance width="1536"/>
  <unicode hex="0058"/>
  <outline>
    <contour>
      <point x="140" y="-105" type="curve" smooth="yes"/>
      <point x="62" y="-105"/>
      <point x="3" y="-75"/>
      <point x="3" y="-5" type="curve" smooth="yes"/>
      <point x="3" y="67"/>
      <point x="65" y="128"/>
      <point x="110" y="184" type="curve" smooth="yes"/>
      <point x="300" y="420"/>
      <point x="506" y="669"/>
      <point x="696" y="903" type="curve"/>
      <point x="687" y="934" type="line"/>
      <point x="657" y="1137"/>
      <point x="616" y="1472"/>
      <point x="390" y="1472" type="curve" smooth="yes"/>
      <point x="327" y="1472"/>
      <point x="234" y="1294"/>
      <point x="208" y="1244" type="curve" smooth="yes"/>
      <point x="197" y="1224"/>
      <point x="187" y="1214"/>
      <point x="178" y="1214" type="curve" smooth="yes"/>
      <point x="131" y="1214"/>
      <point x="114" y="1382"/>
      <point x="114" y="1436" type="curve" smooth="yes"/>
      <point x="114" y="1614"/>
      <point x="205" y="1728"/>
      <point x="380" y="1728" type="curve" smooth="yes"/>
      <point x="747" y="1728"/>
      <point x="860" y="1429"/>
      <point x="925" y="1116" type="curve"/>
      <point x="1047" y="1301"/>
      <point x="1193" y="1485"/>
      <point x="1360" y="1622" type="curve" smooth="yes"/>
      <point x="1407" y="1660"/>
      <point x="1465" y="1710"/>
      <point x="1531" y="1710" type="curve" smooth="yes"/>
      <point x="1633" y="1710"/>
      <point x="1671" y="1557"/>
      <point x="1671" y="1450" type="curve" smooth="yes"/>
      <point x="1671" y="1328"/>
      <point x="1599" y="1257"/>
      <point x="1481" y="1257" type="curve" smooth="yes"/>
      <point x="1462" y="1257"/>
      <point x="1461" y="1289"/>
      <point x="1461" y="1324" type="curve" smooth="yes"/>
      <point x="1461" y="1350" type="line" smooth="yes"/>
      <point x="1461" y="1383"/>
      <point x="1459" y="1412"/>
      <point x="1443" y="1412" type="curve" smooth="yes"/>
      <point x="1371" y="1412"/>
      <point x="1297" y="1299"/>
      <point x="1256" y="1250" type="curve" smooth="yes"/>
      <point x="1167" y="1143"/>
      <point x="1080" y="1019"/>
      <point x="1000" y="901" type="curve"/>
      <point x="1050" y="715"/>
      <point x="1078" y="529"/>
      <point x="1124" y="350" type="curve" smooth="yes"/>
      <point x="1148" y="254"/>
      <point x="1181" y="159"/>
      <point x="1295" y="159" type="curve" smooth="yes"/>
      <point x="1429" y="159"/>
      <point x="1520" y="300"/>
      <point x="1595" y="416" type="curve"/>
      <point x="1605" y="426"/>
      <point x="1616" y="431"/>
      <point x="1629" y="431" type="curve" smooth="yes"/>
      <point x="1682" y="431"/>
      <point x="1724" y="364"/>
      <point x="1724" y="310" type="curve" smooth="yes"/>
      <point x="1724" y="289"/>
      <point x="1715" y="273"/>
      <point x="1702" y="257" type="curve" smooth="yes"/>
      <point x="1597" y="134"/>
      <point x="1474" y="11"/>
      <point x="1314" y="-44" type="curve" smooth="yes"/>
      <point x="1275" y="-58"/>
      <point x="1239" y="-64"/>
      <point x="1207" y="-64" type="curve" smooth="yes"/>
      <point x="940" y="-64"/>
      <point x="892" y="180"/>
      <point x="836" y="401" type="curve" smooth="yes"/>
      <point x="817" y="478"/>
      <point x="796" y="568"/>
      <point x="774" y="671" type="curve"/>
      <point x="572" y="368" type="line" smooth="yes"/>
      <point x="484" y="236"/>
      <point x="391" y="95"/>
      <point x="302" y="-31" type="curve" smooth="yes"/>
      <point x="272" y="-72"/>
      <point x="209" y="-105"/>
    </contour>
  </outline>
</glyph>
<glyph name="Z" format="1">
  <advance width="1265"/>
  <unicode hex="005A"/>
  <outline>
    <contour>
      <point x="958" y="1312" type="line"/>
      <point x="926" y="1312"/>
      <point x="893" y="1310"/>
      <point x="860" y="1310" type="curve" smooth="yes"/>
      <point x="699" y="1310"/>
      <point x="586" y="1345"/>
      <point x="470" y="1374" type="curve" smooth="yes"/>
      <point x="453" y="1380"/>
      <point x="438" y="1382"/>
      <point x="423" y="1382" type="curve" smooth="yes"/>
      <point x="281" y="1382"/>
      <point x="302" y="1107"/>
      <point x="169" y="1107" type="curve" smooth="yes"/>
      <point x="140" y="1107"/>
      <point x="134" y="1137"/>
      <point x="134" y="1168" type="curve" smooth="yes"/>
      <point x="134" y="1385"/>
      <point x="230" y="1633"/>
      <point x="433" y="1633" type="curve" smooth="yes"/>
      <point x="609" y="1633"/>
      <point x="718" y="1550"/>
      <point x="895" y="1547" type="curve" smooth="yes"/>
      <point x="920" y="1546"/>
      <point x="942" y="1546"/>
      <point x="964" y="1546" type="curve" smooth="yes"/>
      <point x="1026" y="1546" type="line" smooth="yes"/>
      <point x="1138" y="1546"/>
      <point x="1220" y="1558"/>
      <point x="1305" y="1558" type="curve" smooth="yes"/>
      <point x="1364" y="1558"/>
      <point x="1384" y="1514"/>
      <point x="1384" y="1454" type="curve" smooth="yes"/>
      <point x="1384" y="1388"/>
      <point x="1368" y="1366"/>
      <point x="1321" y="1340" type="curve"/>
      <point x="998" y="1064"/>
      <point x="741" y="749"/>
      <point x="508" y="405" type="curve" smooth="yes"/>
      <point x="489" y="373"/>
      <point x="476" y="352"/>
      <point x="468" y="342" type="curve"/>
      <point x="463" y="319" type="line"/>
      <point x="550" y="319"/>
      <point x="654" y="213"/>
      <point x="761" y="213" type="curve" smooth="yes"/>
      <point x="999" y="213"/>
      <point x="1130" y="283"/>
      <point x="1277" y="342" type="curve" smooth="yes"/>
      <point x="1293" y="351"/>
      <point x="1306" y="358"/>
      <point x="1321" y="358" type="curve" smooth="yes"/>
      <point x="1384" y="358"/>
      <point x="1435" y="290"/>
      <point x="1435" y="227" type="curve" smooth="yes"/>
      <point x="1435" y="204"/>
      <point x="1431" y="184"/>
      <point x="1417" y="172" type="curve" smooth="yes"/>
      <point x="1271" y="76"/>
      <point x="1039" y="-30"/>
      <point x="773" y="-30" type="curve" smooth="yes"/>
      <point x="681" y="-30"/>
      <point x="591" y="21"/>
      <point x="506" y="56" type="curve" smooth="yes"/>
      <point x="455" y="77"/>
      <point x="395" y="104"/>
      <point x="328" y="135" type="curve"/>
      <point x="276" y="90"/>
      <point x="214" y="51"/>
      <point x="134" y="51" type="curve" smooth="yes"/>
      <point x="65" y="51"/>
      <point x="13" y="88"/>
      <point x="13" y="156" type="curve" smooth="yes"/>
      <point x="13" y="238"/>
      <point x="73" y="294"/>
      <point x="124" y="352" type="curve" smooth="yes"/>
    </contour>
  </outline>
</glyph>
<glyph name="backslash" format="1">
  <advance width="1248"/>
  <unicode hex="005C"/>
  <outline>
    <contour>
      <point x="155" y="1743" type="curve" smooth="yes"/>
      <point x="155" y="1815"/>
      <point x="196" y="1864"/>
      <point x="267" y="1864" type="curve" smooth="yes"/>
      <point x="408" y="1864"/>
      <point x="440" y="1708"/>
      <point x="489" y="1598" type="curve" smooth="yes"/>
      <point x="696" y="1138"/>
      <point x="913" y="656"/>
      <point x="1120" y="197" type="curve"/>
      <point x="1140" y="150"/>
      <point x="1159" y="108"/>
      <point x="1159" y="55" type="curve" smooth="yes"/>
      <point x="1159" y="-8"/>
      <point x="1114" y="-39"/>
      <point x="1053" y="-39" type="curve" smooth="yes"/>
      <point x="966" y="-39"/>
      <point x="896" y="6"/>
      <point x="867" y="64" type="curve" smooth="yes"/>
      <point x="611" y="569"/>
      <point x="414" y="1111"/>
      <point x="185" y="1622" type="curve" smooth="yes"/>
      <point x="168" y="1659"/>
      <point x="155" y="1697"/>
    </contour>
  </outline>
</glyph>
<glyph name="a" format="1">
  <advance width="995"/>
  <unicode hex="0061"/>
  <outline>
    <contour>
      <point x="224" y="303" type="curve" smooth="yes"/>
      <point x="218" y="221"/>
      <point x="239" y="87"/>
      <point x="373" y="92" type="curve" smooth="yes"/>
      <point x="531" y="98"/>
      <point x="671" y="382"/>
      <point x="694" y="474" type="curve" smooth="yes"/>
      <point x="789" y="853" type="line"/>
      <point x="492" y="853"/>
      <point x="237" y="487"/>
    </contour>
    <contour>
      <point x="825" y="214" type="curve" smooth="yes"/>
      <point x="825" y="165"/>
      <point x="827" y="114"/>
      <point x="870" y="114" type="curve" smooth="yes"/>
      <point x="963" y="114"/>
      <point x="1060" y="245"/>
      <point x="1107" y="309" type="curve" smooth="yes"/>
      <point x="1122" y="326"/>
      <point x="1145" y="334"/>
      <point x="1157" y="334" type="curve" smooth="yes"/>
      <point x="1178" y="334"/>
      <point x="1203" y="322"/>
      <point x="1203" y="287" type="curve" smooth="yes"/>
      <point x="1203" y="272"/>
      <point x="1201" y="258"/>
      <point x="1197" y="250" type="curve"/>
      <point x="1129" y="150"/>
      <point x="1005" y="0"/>
      <point x="848" y="0" type="curve" smooth="yes"/>
      <point x="742" y="0"/>
      <point x="666" y="91"/>
      <point x="672" y="278" type="curve"/>
      <point x="608" y="113"/>
      <point x="485" y="0"/>
      <point x="350" y="0" type="curve" smooth="yes"/>
      <point x="195" y="0"/>
      <point x="99" y="123"/>
      <point x="99" y="281" type="curve" smooth="yes"/>
      <point x="99" y="583"/>
      <point x="412" y="868"/>
      <point x="623" y="922" type="curve" smooth="yes"/>
      <point x="671" y="934"/>
      <point x="712" y="952"/>
      <point x="758" y="952" type="curve" smooth="yes"/>
      <point x="801" y="952"/>
      <point x="798" y="924"/>
      <point x="822" y="924" type="curve" smooth="yes"/>
      <point x="837" y="924"/>
      <point x="872" y="925"/>
      <point x="887" y="925" type="curve" smooth="yes"/>
      <point x="904" y="925"/>
      <point x="940" y="920"/>
      <point x="929" y="862" type="curve" smooth="yes"/>
      <point x="899" y="699"/>
      <point x="825" y="380"/>
    </contour>
  </outline>
</glyph>
<glyph name="b" format="1">
  <advance width="964"/>
  <unicode hex="0062"/>
  <outline>
    <contour>
      <point x="286" y="955" type="curve"/>
      <point x="434" y="1082"/>
      <point x="746" y="1290"/>
      <point x="746" y="1608" type="curve" smooth="yes"/>
      <point x="746" y="1743"/>
      <point x="721" y="1808"/>
      <point x="625" y="1808" type="curve" smooth="yes"/>
      <point x="467" y="1808"/>
      <point x="309" y="1079"/>
    </contour>
    <contour>
      <point x="795" y="627" type="curve" smooth="yes"/>
      <point x="795" y="772"/>
      <point x="738" y="840"/>
      <point x="651" y="840" type="curve" smooth="yes"/>
      <point x="428" y="840"/>
      <point x="222" y="413"/>
      <point x="204" y="207" type="curve"/>
      <point x="279" y="130"/>
      <point x="423" y="94"/>
      <point x="492" y="94" type="curve" smooth="yes"/>
      <point x="643" y="94"/>
      <point x="795" y="400"/>
    </contour>
    <contour>
      <point x="858" y="1591" type="curve" smooth="yes"/>
      <point x="858" y="1264"/>
      <point x="518" y="1035"/>
      <point x="282" y="846" type="curve"/>
      <point x="218" y="525" type="line"/>
      <point x="267" y="677"/>
      <point x="449" y="944"/>
      <point x="673" y="954" type="curve" smooth="yes"/>
      <point x="854" y="962"/>
      <point x="924" y="799"/>
      <point x="924" y="618" type="curve" smooth="yes"/>
      <point x="924" y="482"/>
      <point x="838" y="273"/>
      <point x="776" y="198" type="curve"/>
      <point x="890" y="262"/>
      <point x="1005" y="347"/>
      <point x="1137" y="446" type="curve"/>
      <point x="1146" y="450"/>
      <point x="1164" y="466"/>
      <point x="1192" y="466" type="curve" smooth="yes"/>
      <point x="1213" y="466"/>
      <point x="1244" y="458"/>
      <point x="1244" y="409" type="curve" smooth="yes"/>
      <point x="1244" y="382"/>
      <point x="1226" y="351"/>
      <point x="1204" y="331" type="curve"/>
      <point x="1068" y="222"/>
      <point x="930" y="142"/>
      <point x="730" y="96" type="curve"/>
      <point x="668" y="37"/>
      <point x="590" y="0"/>
      <point x="482" y="0" type="curve" smooth="yes"/>
      <point x="317" y="0"/>
      <point x="176" y="69"/>
      <point x="76" y="137" type="curve" smooth="yes"/>
      <point x="64" y="145"/>
      <point x="59" y="150"/>
      <point x="58" y="152" type="curve"/>
      <point x="76" y="638"/>
      <point x="165" y="1153"/>
      <point x="300" y="1542" type="curve" smooth="yes"/>
      <point x="352" y="1691"/>
      <point x="443" y="1920"/>
      <point x="624" y="1920" type="curve" smooth="yes"/>
      <point x="818" y="1920"/>
      <point x="858" y="1784"/>
    </contour>
  </outline>
</glyph>
<glyph name="e" format="1">
  <advance width="740"/>
  <unicode hex="0065"/>
  <outline>
    <contour>
      <point x="646" y="708" type="curve" smooth="yes"/>
      <point x="655" y="791"/>
      <point x="607" y="861"/>
      <point x="493" y="861" type="curve" smooth="yes"/>
      <point x="281" y="861"/>
      <point x="174" y="624"/>
      <point x="174" y="427" type="curve"/>
      <point x="464" y="517"/>
      <point x="633" y="587"/>
    </contour>
    <contour>
      <point x="818" y="161" type="curve"/>
      <point x="697" y="63"/>
      <point x="512" y="1"/>
      <point x="378" y="1" type="curve" smooth="yes"/>
      <point x="198" y="1"/>
      <point x="50" y="133"/>
      <point x="50" y="417" type="curve"/>
      <point x="50" y="687"/>
      <point x="223" y="953"/>
      <point x="491" y="953" type="curve" smooth="yes"/>
      <point x="645" y="953"/>
      <point x="769" y="863"/>
      <point x="754" y="709" type="curve" smooth="yes"/>
      <point x="732" y="485"/>
      <point x="358" y="400"/>
      <point x="178" y="350" type="curve"/>
      <point x="187" y="206"/>
      <point x="267" y="109"/>
      <point x="393" y="109" type="curve" smooth="yes"/>
      <point x="547" y="109"/>
      <point x="720" y="217"/>
      <point x="776" y="262" type="curve"/>
      <point x="797" y="281"/>
      <point x="834" y="317"/>
      <point x="850" y="317" type="curve" smooth="yes"/>
      <point x="875" y="317"/>
      <point x="892" y="296"/>
      <point x="892" y="264" type="curve" smooth="yes"/>
      <point x="892" y="229"/>
      <point x="874" y="212"/>
    </contour>
  </outline>
</glyph>
<glyph name="f" format="1">
  <advance width="724"/>
  <unicode hex="0066"/>
  <outline>
    <contour>
      <point x="890" y="1386"/>
      <point x="441" y="829"/>
      <point x="285" y="636" type="curve"/>
      <point x="379" y="1187"/>
      <point x="601" y="1761"/>
      <point x="830" y="1761" type="curve" smooth="yes"/>
      <point x="871" y="1761"/>
      <point x="890" y="1703"/>
      <point x="890" y="1649" type="curve" smooth="yes"/>
    </contour>
    <contour>
      <point x="557" y="-299"/>
      <point x="476" y="-506"/>
      <point x="357" y="-506" type="curve" smooth="yes"/>
      <point x="262" y="-506"/>
      <point x="214" y="-335"/>
      <point x="214" y="-47" type="curve" smooth="yes"/>
      <point x="214" y="144"/>
      <point x="232" y="370"/>
      <point x="261" y="562" type="curve"/>
      <point x="333" y="424"/>
      <point x="537" y="136"/>
      <point x="537" y="-108" type="curve"/>
    </contour>
    <contour>
      <point x="585" y="-604"/>
      <point x="680" y="-277"/>
      <point x="640" y="1" type="curve" smooth="yes"/>
      <point x="614" y="182"/>
      <point x="475" y="395"/>
      <point x="419" y="517" type="curve"/>
      <point x="621" y="444"/>
      <point x="1045" y="453"/>
      <point x="1045" y="652" type="curve" smooth="yes"/>
      <point x="1045" y="691"/>
      <point x="1032" y="721"/>
      <point x="1009" y="721" type="curve" smooth="yes"/>
      <point x="1003" y="721"/>
      <point x="998" y="719"/>
      <point x="991" y="715" type="curve" smooth="yes"/>
      <point x="853" y="638"/>
      <point x="821" y="577"/>
      <point x="654" y="577" type="curve" smooth="yes"/>
      <point x="615" y="577"/>
      <point x="399" y="603"/>
      <point x="370" y="613" type="curve"/>
      <point x="567" y="843"/>
      <point x="977" y="1243"/>
      <point x="1017" y="1624" type="curve" smooth="yes"/>
      <point x="1031" y="1762"/>
      <point x="962" y="1856"/>
      <point x="837" y="1856" type="curve" smooth="yes"/>
      <point x="281" y="1856"/>
      <point x="98" y="536"/>
      <point x="98" y="-23" type="curve" smooth="yes"/>
      <point x="98" y="-261"/>
      <point x="117" y="-604"/>
      <point x="325" y="-604" type="curve" smooth="yes"/>
    </contour>
  </outline>
</glyph>
<glyph name="i" format="1">
  <advance width="497"/>
  <unicode hex="0069"/>
  <outline>
    <contour>
      <point x="482" y="1179" type="curve" smooth="yes"/>
      <point x="407" y="1179"/>
      <point x="361" y="1213"/>
      <point x="361" y="1281" type="curve" smooth="yes"/>
      <point x="361" y="1351"/>
      <point x="421" y="1393"/>
      <point x="499" y="1393" type="curve" smooth="yes"/>
      <point x="563" y="1393"/>
      <point x="611" y="1365"/>
      <point x="611" y="1299" type="curve" smooth="yes"/>
      <point x="611" y="1223"/>
      <point x="559" y="1179"/>
    </contour>
    <contour>
      <point x="238" y="258" type="curve" smooth="yes"/>
      <point x="228" y="98"/>
      <point x="297" y="95"/>
      <point x="343" y="102" type="curve" smooth="yes"/>
      <point x="485" y="123"/>
      <point x="571" y="222"/>
      <point x="649" y="307" type="curve" smooth="yes"/>
      <point x="660" y="318"/>
      <point x="671" y="323"/>
      <point x="678" y="323" type="curve" smooth="yes"/>
      <point x="693" y="323"/>
      <point x="699" y="302"/>
      <point x="699" y="273" type="curve" smooth="yes"/>
      <point x="699" y="215"/>
      <point x="682" y="195"/>
      <point x="659" y="174" type="curve" smooth="yes"/>
      <point x="561" y="84"/>
      <point x="477" y="2"/>
      <point x="299" y="0" type="curve" smooth="yes"/>
      <point x="168" y="-1"/>
      <point x="113" y="91"/>
      <point x="113" y="221" type="curve" smooth="yes"/>
      <point x="113" y="458"/>
      <point x="226" y="720"/>
      <point x="289" y="863" type="curve" smooth="yes"/>
      <point x="316" y="924"/>
      <point x="323" y="960"/>
      <point x="346" y="960" type="curve" smooth="yes"/>
      <point x="394" y="960"/>
      <point x="428" y="945"/>
      <point x="418" y="903" type="curve" smooth="yes"/>
      <point x="368" y="695"/>
      <point x="252" y="481"/>
    </contour>
  </outline>
</glyph>
<glyph name="l" format="1">
  <advance width="589"/>
  <unicode hex="006C"/>
  <outline>
    <contour>
      <point x="699" y="1593" type="curve" smooth="yes"/>
      <point x="699" y="1620"/>
      <point x="689" y="1641"/>
      <point x="668" y="1641" type="curve" smooth="yes"/>
      <point x="442" y="1641"/>
      <point x="358" y="975"/>
      <point x="358" y="740" type="curve"/>
      <point x="480" y="955"/>
      <point x="603" y="1198"/>
      <point x="674" y="1460" type="curve" smooth="yes"/>
      <point x="687" y="1508"/>
      <point x="699" y="1552"/>
    </contour>
    <contour>
      <point x="853" y="299" type="curve"/>
      <point x="794" y="132"/>
      <point x="555" y="0"/>
      <point x="367" y="0" type="curve" smooth="yes"/>
      <point x="177" y="0"/>
      <point x="110" y="320"/>
      <point x="110" y="519" type="curve" smooth="yes"/>
      <point x="110" y="998"/>
      <point x="225" y="1476"/>
      <point x="440" y="1748" type="curve" smooth="yes"/>
      <point x="510" y="1837"/>
      <point x="603" y="1920"/>
      <point x="743" y="1920" type="curve" smooth="yes"/>
      <point x="858" y="1920"/>
      <point x="887" y="1810"/>
      <point x="887" y="1694" type="curve" smooth="yes"/>
      <point x="887" y="1215"/>
      <point x="606" y="841"/>
      <point x="386" y="565" type="curve" smooth="yes"/>
      <point x="371" y="546"/>
      <point x="368" y="498"/>
      <point x="368" y="461" type="curve" smooth="yes"/>
      <point x="368" y="368"/>
      <point x="380" y="214"/>
      <point x="478" y="214" type="curve" smooth="yes"/>
      <point x="573" y="214"/>
      <point x="691" y="334"/>
      <point x="762" y="407" type="curve"/>
      <point x="780" y="419"/>
      <point x="798" y="424"/>
      <point x="812" y="424" type="curve" smooth="yes"/>
      <point x="837" y="424"/>
      <point x="855" y="373"/>
      <point x="855" y="324" type="curve" smooth="yes"/>
      <point x="855" y="315"/>
      <point x="854" y="307"/>
    </contour>
  </outline>
</glyph>
<glyph name="n" format="1">
  <advance width="947"/>
  <unicode hex="006E"/>
  <outline>
    <contour>
      <point x="1017" y="149" type="curve" smooth="yes"/>
      <point x="977" y="71"/>
      <point x="908" y="12"/>
      <point x="816" y="1" type="curve" smooth="yes"/>
      <point x="671" y="-16"/>
      <point x="604" y="121"/>
      <point x="661" y="309" type="curve" smooth="yes"/>
      <point x="770" y="668"/>
      <point x="850" y="969"/>
      <point x="640" y="702" type="curve" smooth="yes"/>
      <point x="560" y="600"/>
      <point x="484" y="456"/>
      <point x="336" y="224" type="curve" smooth="yes"/>
      <point x="294" y="158"/>
      <point x="224" y="6"/>
      <point x="173" y="0" type="curve" smooth="yes"/>
      <point x="86" y="-10"/>
      <point x="132" y="247"/>
      <point x="147" y="356" type="curve" smooth="yes"/>
      <point x="207" y="784"/>
      <point x="246" y="954"/>
      <point x="326" y="954" type="curve" smooth="yes"/>
      <point x="367" y="954"/>
      <point x="373" y="920"/>
      <point x="366" y="869" type="curve" smooth="yes"/>
      <point x="348" y="739"/>
      <point x="257" y="325"/>
      <point x="242" y="241" type="curve"/>
      <point x="407" y="548"/>
      <point x="629" y="954"/>
      <point x="796" y="954" type="curve" smooth="yes"/>
      <point x="873" y="954"/>
      <point x="921" y="856"/>
      <point x="911" y="772" type="curve" smooth="yes"/>
      <point x="891" y="600"/>
      <point x="827" y="445"/>
      <point x="770" y="284" type="curve" smooth="yes"/>
      <point x="736" y="188"/>
      <point x="747" y="111"/>
      <point x="804" y="109" type="curve" smooth="yes"/>
      <point x="877" y="106"/>
      <point x="931" y="208"/>
      <point x="992" y="216" type="curve" smooth="yes"/>
      <point x="1019" y="220"/>
      <point x="1034" y="181"/>
    </contour>
  </outline>
</glyph>
<glyph name="o" format="1">
  <advance width="852.996581673"/>
  <unicode hex="006F"/>
  <outline>
    <contour>
      <point x="548.530751762" y="591" type="curve" smooth="yes"/>
      <point x="548.530751762" y="646"/>
      <point x="670.530751762" y="547"/>
      <point x="722.530751762" y="528" type="curve"/>
      <point x="742.530751762" y="692"/>
      <point x="696" y="854"/>
      <point x="556" y="854" type="curve" smooth="yes"/>
      <point x="416" y="853"/>
      <point x="237" y="683"/>
      <point x="211" y="450" type="curve" smooth="yes"/>
      <point x="183" y="207"/>
      <point x="281" y="102"/>
      <point x="413" y="103" type="curve" smooth="yes"/>
      <point x="522" y="103"/>
      <point x="670.530751762" y="197"/>
      <point x="710.530751762" y="441" type="curve"/>
      <point x="644.530751762" y="478"/>
      <point x="548.530751762" y="499"/>
    </contour>
    <contour>
      <point x="820.530751762" y="515" type="curve"/>
      <point x="925.530751762" y="515"/>
      <point x="1011" y="607"/>
      <point x="1060" y="677" type="curve" smooth="yes"/>
      <point x="1076" y="699"/>
      <point x="1130" y="652"/>
      <point x="1119" y="624" type="curve" smooth="yes"/>
      <point x="1069" y="496"/>
      <point x="920.530751762" y="422"/>
      <point x="817.530751762" y="422" type="curve"/>
      <point x="757.530751762" y="203"/>
      <point x="651.530751762" y="1"/>
      <point x="380.530751762" y="0" type="curve" smooth="yes"/>
      <point x="149.530751762" y="0"/>
      <point x="63" y="203"/>
      <point x="85" y="434" type="curve" smooth="yes"/>
      <point x="112" y="706"/>
      <point x="312.530751762" y="952"/>
      <point x="576.530751762" y="953" type="curve" smooth="yes"/>
      <point x="746.530751762" y="953"/>
      <point x="831.530751762" y="780"/>
      <point x="834.530751762" y="641" type="curve" smooth="yes"/>
      <point x="834.530751762" y="640"/>
      <point x="830.530751762" y="547"/>
    </contour>
  </outline>
</glyph>
<glyph name="r" format="1">
  <advance width="804"/>
  <unicode hex="0072"/>
  <outline>
    <contour>
      <point x="145" y="0" type="curve" smooth="yes"/>
      <point x="76" y="0"/>
      <point x="95" y="74"/>
      <point x="107" y="184" type="curve" smooth="yes"/>
      <point x="120" y="303"/>
      <point x="193" y="718"/>
      <point x="213" y="842" type="curve" smooth="yes"/>
      <point x="221" y="894"/>
      <point x="237" y="960"/>
      <point x="302" y="960" type="curve" smooth="yes"/>
      <point x="332" y="960"/>
      <point x="351" y="934"/>
      <point x="338" y="864" type="curve" smooth="yes"/>
      <point x="316" y="742" type="line" smooth="yes"/>
      <point x="310" y="707"/>
      <point x="297" y="629"/>
      <point x="289" y="575" type="curve"/>
      <point x="297" y="575" type="line"/>
      <point x="350" y="682"/>
      <point x="526" y="960"/>
      <point x="682" y="960" type="curve" smooth="yes"/>
      <point x="739" y="960"/>
      <point x="780" y="923"/>
      <point x="780" y="866" type="curve" smooth="yes"/>
      <point x="780" y="816"/>
      <point x="710" y="692"/>
      <point x="689" y="604" type="curve" smooth="yes"/>
      <point x="666" y="504"/>
      <point x="706" y="464"/>
      <point x="755" y="464" type="curve" smooth="yes"/>
      <point x="815" y="464"/>
      <point x="857" y="499"/>
      <point x="886" y="516" type="curve" smooth="yes"/>
      <point x="901" y="525"/>
      <point x="923" y="539"/>
      <point x="934" y="539" type="curve" smooth="yes"/>
      <point x="957" y="539"/>
      <point x="963" y="509"/>
      <point x="964" y="474" type="curve" smooth="yes"/>
      <point x="965" y="446"/>
      <point x="908" y="419"/>
      <point x="908" y="419" type="curve"/>
      <point x="882" y="404"/>
      <point x="803" y="362"/>
      <point x="718" y="368" type="curve" smooth="yes"/>
      <point x="623" y="375"/>
      <point x="504" y="448"/>
      <point x="603" y="684" type="curve" smooth="yes"/>
      <point x="706" y="930"/>
      <point x="585" y="847"/>
      <point x="427" y="624" type="curve" smooth="yes"/>
      <point x="365" y="536"/>
      <point x="289" y="450"/>
      <point x="252" y="325" type="curve" smooth="yes"/>
      <point x="235" y="267"/>
      <point x="218" y="0"/>
    </contour>
  </outline>
</glyph>
<glyph name="u" format="1">
  <advance width="927"/>
  <unicode hex="0075"/>
  <outline>
    <contour>
      <point x="872" y="895" type="curve" smooth="yes"/>
      <point x="872" y="759"/>
      <point x="779" y="382"/>
      <point x="779" y="278" type="curve" smooth="yes"/>
      <point x="779" y="204"/>
      <point x="797" y="177"/>
      <point x="824" y="177" type="curve" smooth="yes"/>
      <point x="888" y="177"/>
      <point x="1002" y="335"/>
      <point x="1030" y="365" type="curve" smooth="yes"/>
      <point x="1052" y="389"/>
      <point x="1075" y="401"/>
      <point x="1096" y="401" type="curve" smooth="yes"/>
      <point x="1144" y="401"/>
      <point x="1182" y="345"/>
      <point x="1182" y="264" type="curve"/>
      <point x="1120" y="137"/>
      <point x="948" y="0"/>
      <point x="788" y="0" type="curve" smooth="yes"/>
      <point x="706" y="0"/>
      <point x="588" y="57"/>
      <point x="579" y="208" type="curve"/>
      <point x="579" y="208"/>
      <point x="489" y="0"/>
      <point x="298" y="0" type="curve" smooth="yes"/>
      <point x="131" y="0"/>
      <point x="77" y="130"/>
      <point x="77" y="320" type="curve" smooth="yes"/>
      <point x="77" y="499"/>
      <point x="141" y="959"/>
      <point x="332" y="959" type="curve" smooth="yes"/>
      <point x="371" y="959"/>
      <point x="422" y="939"/>
      <point x="422" y="872" type="curve" smooth="yes"/>
      <point x="422" y="867"/>
      <point x="423" y="862"/>
      <point x="421" y="857" type="curve" smooth="yes"/>
      <point x="350" y="657"/>
      <point x="314" y="497"/>
      <point x="314" y="328" type="curve" smooth="yes"/>
      <point x="314" y="279"/>
      <point x="334" y="225"/>
      <point x="392" y="225" type="curve" smooth="yes"/>
      <point x="479" y="225"/>
      <point x="526" y="319"/>
      <point x="541" y="394" type="curve" smooth="yes"/>
      <point x="640" y="902" type="line" smooth="yes"/>
      <point x="648" y="939"/>
      <point x="712" y="959"/>
      <point x="761" y="959" type="curve" smooth="yes"/>
      <point x="814" y="959"/>
      <point x="872" y="941"/>
    </contour>
  </outline>
</glyph>
<glyph name="v" format="1">
  <advance width="907"/>
  <unicode hex="0076"/>
  <outline>
    <contour>
      <point x="846" y="211" type="curve" smooth="yes"/>
      <point x="736" y="211"/>
      <point x="653" y="244"/>
      <point x="601" y="342" type="curve"/>
      <point x="546" y="227"/>
      <point x="462" y="98"/>
      <point x="370" y="22" type="curve" smooth="yes"/>
      <point x="344" y="0"/>
      <point x="318" y="-11"/>
      <point x="295" y="-11" type="curve" smooth="yes"/>
      <point x="132" y="-11"/>
      <point x="107" y="253"/>
      <point x="107" y="495" type="curve" smooth="yes"/>
      <point x="107" y="602"/>
      <point x="112" y="704"/>
      <point x="112" y="778" type="curve" smooth="yes"/>
      <point x="112" y="877"/>
      <point x="152" y="962"/>
      <point x="247" y="962" type="curve" smooth="yes"/>
      <point x="321" y="962"/>
      <point x="374" y="910"/>
      <point x="374" y="837" type="curve" smooth="yes"/>
      <point x="374" y="826" type="line"/>
      <point x="335" y="261" type="line"/>
      <point x="349" y="262" type="line"/>
      <point x="612" y="889" type="line"/>
      <point x="621" y="933"/>
      <point x="674" y="960"/>
      <point x="728" y="960" type="curve" smooth="yes"/>
      <point x="785" y="960"/>
      <point x="860" y="936"/>
      <point x="860" y="893" type="curve" smooth="yes"/>
      <point x="860" y="888"/>
      <point x="859" y="882"/>
      <point x="856" y="876" type="curve" smooth="yes"/>
      <point x="817" y="784"/>
      <point x="749" y="647"/>
      <point x="749" y="528" type="curve" smooth="yes"/>
      <point x="749" y="427"/>
      <point x="786" y="365"/>
      <point x="883" y="365" type="curve" smooth="yes"/>
      <point x="956" y="365"/>
      <point x="1043" y="409"/>
      <point x="1094" y="442" type="curve" smooth="yes"/>
      <point x="1103" y="448"/>
      <point x="1113" y="450"/>
      <point x="1121" y="450" type="curve" smooth="yes"/>
      <point x="1148" y="450"/>
      <point x="1162" y="420"/>
      <point x="1162" y="387" type="curve" smooth="yes"/>
      <point x="1162" y="353"/>
      <point x="1146" y="316"/>
      <point x="1115" y="297" type="curve" smooth="yes"/>
      <point x="1054" y="260"/>
      <point x="934" y="211"/>
    </contour>
  </outline>
</glyph>
<glyph name="w" format="1">
  <advance width="1249"/>
  <unicode hex="0077"/>
  <outline>
    <contour>
      <point x="66" y="316" type="curve" smooth="yes"/>
      <point x="66" y="383" type="line" smooth="yes"/>
      <point x="66" y="609"/>
      <point x="73" y="961"/>
      <point x="215" y="961" type="curve"/>
      <point x="239" y="959" type="line"/>
      <point x="239" y="959" type="line" smooth="yes"/>
      <point x="286" y="959"/>
      <point x="327" y="942"/>
      <point x="327" y="905" type="curve" smooth="yes"/>
      <point x="327" y="898" type="line"/>
      <point x="257" y="314" type="line"/>
      <point x="275" y="355" type="line"/>
      <point x="343" y="514"/>
      <point x="392" y="670"/>
      <point x="465" y="812" type="curve" smooth="yes"/>
      <point x="507" y="894"/>
      <point x="556" y="959"/>
      <point x="673" y="959" type="curve" smooth="yes"/>
      <point x="720" y="959"/>
      <point x="761" y="942"/>
      <point x="761" y="906" type="curve" smooth="yes"/>
      <point x="761" y="904"/>
      <point x="761" y="902"/>
      <point x="760" y="898" type="curve" smooth="yes"/>
      <point x="688" y="354" type="line"/>
      <point x="682" y="296" type="line"/>
      <point x="936" y="891" type="line" smooth="yes"/>
      <point x="953" y="931"/>
      <point x="1015" y="960"/>
      <point x="1079" y="960" type="curve" smooth="yes"/>
      <point x="1117" y="960"/>
      <point x="1166" y="932"/>
      <point x="1166" y="884" type="curve" smooth="yes"/>
      <point x="1166" y="879"/>
      <point x="1164" y="874"/>
      <point x="1162" y="868" type="curve" smooth="yes"/>
      <point x="1124" y="742"/>
      <point x="1070" y="626"/>
      <point x="1070" y="444" type="curve" smooth="yes"/>
      <point x="1070" y="377"/>
      <point x="1096" y="324"/>
      <point x="1171" y="324" type="curve" smooth="yes"/>
      <point x="1243" y="324"/>
      <point x="1358" y="413"/>
      <point x="1421" y="460" type="curve" smooth="yes"/>
      <point x="1442" y="475"/>
      <point x="1458" y="480"/>
      <point x="1470" y="480" type="curve" smooth="yes"/>
      <point x="1488" y="480"/>
      <point x="1512" y="449"/>
      <point x="1512" y="413" type="curve" smooth="yes"/>
      <point x="1512" y="402"/>
      <point x="1510" y="390"/>
      <point x="1505" y="379" type="curve"/>
      <point x="1412" y="272"/>
      <point x="1300" y="145"/>
      <point x="1131" y="145" type="curve" smooth="yes"/>
      <point x="998" y="145"/>
      <point x="922" y="255"/>
      <point x="919" y="437" type="curve"/>
      <point x="871" y="309"/>
      <point x="761" y="3"/>
      <point x="665" y="3" type="curve" smooth="yes"/>
      <point x="554" y="3"/>
      <point x="549" y="183"/>
      <point x="549" y="348" type="curve" smooth="yes"/>
      <point x="549" y="442"/>
      <point x="548" y="603"/>
      <point x="548" y="603" type="curve"/>
      <point x="516" y="499" type="line"/>
      <point x="468" y="319"/>
      <point x="393" y="134"/>
      <point x="272" y="38" type="curve" smooth="yes"/>
      <point x="245" y="17"/>
      <point x="224" y="3"/>
      <point x="200" y="3" type="curve" smooth="yes"/>
      <point x="89" y="3"/>
      <point x="66" y="143"/>
    </contour>
  </outline>
</glyph>
<glyph name="x" format="1">
  <advance width="1025"/>
  <unicode hex="0078"/>
  <outline>
    <contour>
      <point x="498" y="235" type="curve"/>
      <point x="437" y="165"/>
      <point x="336" y="0"/>
      <point x="224" y="0" type="curve" smooth="yes"/>
      <point x="76" y="0"/>
      <point x="28" y="132"/>
      <point x="22" y="272" type="curve"/>
      <point x="166" y="358" type="line"/>
      <point x="174" y="321"/>
      <point x="191" y="242"/>
      <point x="234" y="242" type="curve" smooth="yes"/>
      <point x="294" y="242"/>
      <point x="367" y="381"/>
      <point x="401" y="430" type="curve"/>
      <point x="355" y="536"/>
      <point x="317" y="648"/>
      <point x="281" y="771" type="curve" smooth="yes"/>
      <point x="280" y="775"/>
      <point x="279" y="778"/>
      <point x="279" y="781" type="curve" smooth="yes"/>
      <point x="279" y="840"/>
      <point x="374" y="896"/>
      <point x="436" y="896" type="curve" smooth="yes"/>
      <point x="518" y="896"/>
      <point x="552" y="724"/>
      <point x="582" y="653" type="curve"/>
      <point x="655" y="730"/>
      <point x="738" y="802"/>
      <point x="832" y="864" type="curve" smooth="yes"/>
      <point x="858" y="881"/>
      <point x="884" y="895"/>
      <point x="919" y="895" type="curve" smooth="yes"/>
      <point x="981" y="895"/>
      <point x="1013" y="842"/>
      <point x="1013" y="780" type="curve" smooth="yes"/>
      <point x="1013" y="732"/>
      <point x="992" y="692"/>
      <point x="960" y="672" type="curve" smooth="yes"/>
      <point x="856" y="606"/>
      <point x="763" y="523"/>
      <point x="680" y="436" type="curve"/>
      <point x="709" y="378"/>
      <point x="772" y="223"/>
      <point x="845" y="223" type="curve" smooth="yes"/>
      <point x="969" y="223"/>
      <point x="1102" y="356"/>
      <point x="1164" y="424" type="curve" smooth="yes"/>
      <point x="1189" y="452"/>
      <point x="1208" y="463"/>
      <point x="1222" y="463" type="curve" smooth="yes"/>
      <point x="1245" y="463"/>
      <point x="1254" y="431"/>
      <point x="1254" y="390" type="curve" smooth="yes"/>
      <point x="1254" y="330"/>
      <point x="1235" y="252"/>
      <point x="1216" y="234" type="curve" smooth="yes"/>
      <point x="1109" y="131"/>
      <point x="940" y="0"/>
      <point x="736" y="0" type="curve" smooth="yes"/>
      <point x="635" y="0"/>
      <point x="554" y="138"/>
    </contour>
  </outline>
</glyph>
<glyph name="y" format="1">
  <advance width="928"/>
  <unicode hex="0079"/>
  <outline>
    <contour>
      <point x="172" y="-736" type="curve" smooth="yes"/>
      <point x="368" y="-736"/>
      <point x="448" y="-417"/>
      <point x="480" y="-256" type="curve"/>
      <point x="348" y="-344"/>
      <point x="212" y="-489"/>
      <point x="147" y="-641" type="curve" smooth="yes"/>
      <point x="137" y="-664"/>
      <point x="132" y="-684"/>
      <point x="132" y="-699" type="curve" smooth="yes"/>
      <point x="132" y="-724"/>
      <point x="145" y="-736"/>
    </contour>
    <contour>
      <point x="320" y="324" type="curve" smooth="yes"/>
      <point x="320" y="260"/>
      <point x="334" y="192"/>
      <point x="398" y="192" type="curve" smooth="yes"/>
      <point x="506" y="192"/>
      <point x="548" y="381"/>
      <point x="570" y="474" type="curve" smooth="yes"/>
      <point x="640" y="768" type="line" smooth="yes"/>
      <point x="658" y="846"/>
      <point x="733" y="909"/>
      <point x="826" y="909" type="curve" smooth="yes"/>
      <point x="866" y="909"/>
      <point x="899" y="893"/>
      <point x="899" y="853" type="curve" smooth="yes"/>
      <point x="899" y="718"/>
      <point x="842" y="553"/>
      <point x="819" y="412" type="curve" smooth="yes"/>
      <point x="803" y="313"/>
      <point x="785" y="227"/>
      <point x="768" y="114" type="curve"/>
      <point x="864" y="194"/>
      <point x="1006" y="314"/>
      <point x="1106" y="407" type="curve" smooth="yes"/>
      <point x="1113" y="413"/>
      <point x="1122" y="413"/>
      <point x="1130" y="413" type="curve" smooth="yes"/>
      <point x="1177" y="413"/>
      <point x="1224" y="347"/>
      <point x="1224" y="284" type="curve" smooth="yes"/>
      <point x="1224" y="244"/>
      <point x="1198" y="218"/>
      <point x="1154" y="185" type="curve" smooth="yes"/>
      <point x="1026" y="89"/>
      <point x="833" y="-39"/>
      <point x="736" y="-108" type="curve"/>
      <point x="674" y="-460"/>
      <point x="566" y="-928"/>
      <point x="160" y="-928" type="curve" smooth="yes"/>
      <point x="24" y="-928"/>
      <point x="-64" y="-870"/>
      <point x="-64" y="-729" type="curve" smooth="yes"/>
      <point x="-64" y="-588"/>
      <point x="45" y="-466"/>
      <point x="117" y="-378" type="curve" smooth="yes"/>
      <point x="232" y="-237"/>
      <point x="372" y="-134"/>
      <point x="514" y="-18" type="curve"/>
      <point x="541" y="105" type="line"/>
      <point x="485" y="55"/>
      <point x="407" y="-2"/>
      <point x="315" y="-2" type="curve" smooth="yes"/>
      <point x="161" y="-2"/>
      <point x="64" y="123"/>
      <point x="64" y="281" type="curve" smooth="yes"/>
      <point x="64" y="513"/>
      <point x="116" y="677"/>
      <point x="192" y="832" type="curve" smooth="yes"/>
      <point x="217" y="881"/>
      <point x="275" y="924"/>
      <point x="342" y="924" type="curve" smooth="yes"/>
      <point x="389" y="924"/>
      <point x="427" y="900"/>
      <point x="427" y="852" type="curve" smooth="yes"/>
      <point x="427" y="793"/>
      <point x="397" y="751"/>
      <point x="380" y="692" type="curve" smooth="yes"/>
      <point x="350" y="584"/>
      <point x="320" y="454"/>
    </contour>
  </outline>
</glyph>
<glyph name="z" format="1">
  <advance width="743"/>
  <unicode hex="007A"/>
  <outline>
    <contour>
      <point x="166" y="-2" type="curve" smooth="yes"/>
      <point x="90" y="-2"/>
      <point x="49" y="51"/>
      <point x="49" y="127" type="curve" smooth="yes"/>
      <point x="49" y="192"/>
      <point x="115" y="211"/>
      <point x="143" y="251" type="curve" smooth="yes"/>
      <point x="484" y="729" type="line"/>
      <point x="441" y="738"/>
      <point x="402" y="742"/>
      <point x="369" y="742" type="curve" smooth="yes"/>
      <point x="282" y="742"/>
      <point x="231" y="705"/>
      <point x="154" y="705" type="curve" smooth="yes"/>
      <point x="130" y="705"/>
      <point x="125" y="731"/>
      <point x="125" y="758" type="curve" smooth="yes"/>
      <point x="125" y="880"/>
      <point x="149" y="984"/>
      <point x="265" y="984" type="curve" smooth="yes"/>
      <point x="390" y="984"/>
      <point x="465" y="912"/>
      <point x="591" y="912" type="curve" smooth="yes"/>
      <point x="645" y="912"/>
      <point x="698" y="924"/>
      <point x="747" y="924" type="curve" smooth="yes"/>
      <point x="808" y="924"/>
      <point x="829" y="893"/>
      <point x="829" y="831" type="curve" smooth="yes"/>
      <point x="829" y="761"/>
      <point x="806" y="745"/>
      <point x="743" y="729" type="curve"/>
      <point x="644" y="561"/>
      <point x="483" y="402"/>
      <point x="360" y="255" type="curve"/>
      <point x="355" y="235" type="line"/>
      <point x="421" y="235"/>
      <point x="506" y="190"/>
      <point x="586" y="190" type="curve" smooth="yes"/>
      <point x="715" y="190"/>
      <point x="789" y="260"/>
      <point x="870" y="308" type="curve" smooth="yes"/>
      <point x="894" y="322"/>
      <point x="919" y="329"/>
      <point x="945" y="329" type="curve" smooth="yes"/>
      <point x="982" y="329"/>
      <point x="1007" y="298"/>
      <point x="1007" y="261" type="curve" smooth="yes"/>
      <point x="1007" y="97"/>
      <point x="685" y="-2"/>
      <point x="524" y="-2" type="curve" smooth="yes"/>
      <point x="435" y="-2"/>
      <point x="346" y="38"/>
      <point x="272" y="70" type="curve"/>
      <point x="245" y="46"/>
      <point x="206" y="-2"/>
    </contour>
  </outline>
</glyph>
<glyph name="braceright" format="1">
  <advance width="1248"/>
  <unicode hex="007D"/>
  <outline>
    <contour>
      <point x="1016" y="1415" type="curve" smooth="yes"/>
      <point x="1016" y="1248"/>
      <point x="955" y="1111"/>
      <point x="955" y="943" type="curve" smooth="yes"/>
      <point x="955" y="837"/>
      <point x="1012" y="802"/>
      <point x="1118" y="800" type="curve" smooth="yes"/>
      <point x="1172" y="799"/>
      <point x="1193" y="744"/>
      <point x="1193" y="688" type="curve" smooth="yes"/>
      <point x="1193" y="606"/>
      <point x="1154" y="512"/>
      <point x="1073" y="512" type="curve" smooth="yes"/>
      <point x="963" y="512"/>
      <point x="896" y="440"/>
      <point x="880" y="346" type="curve" smooth="yes"/>
      <point x="833" y="66"/>
      <point x="800" y="-196"/>
      <point x="586" y="-308" type="curve" smooth="yes"/>
      <point x="543" y="-330"/>
      <point x="498" y="-342"/>
      <point x="450" y="-342" type="curve" smooth="yes"/>
      <point x="320" y="-342"/>
      <point x="64" y="-289"/>
      <point x="64" y="-163" type="curve" smooth="yes"/>
      <point x="64" y="-84"/>
      <point x="120" y="-14"/>
      <point x="195" y="-12" type="curve"/>
      <point x="206" y="-21"/>
      <point x="340" y="-86"/>
      <point x="427" y="-86" type="curve" smooth="yes"/>
      <point x="626" y="-86"/>
      <point x="610" y="356"/>
      <point x="670" y="501" type="curve" smooth="yes"/>
      <point x="702" y="578"/>
      <point x="752" y="642"/>
      <point x="840" y="661" type="curve"/>
      <point x="743" y="697"/>
      <point x="702" y="784"/>
      <point x="702" y="916" type="curve" smooth="yes"/>
      <point x="702" y="1067"/>
      <point x="748" y="1206"/>
      <point x="748" y="1350" type="curve" smooth="yes"/>
      <point x="748" y="1432"/>
      <point x="732" y="1488"/>
      <point x="652" y="1488" type="curve" smooth="yes"/>
      <point x="549" y="1488"/>
      <point x="457" y="1456"/>
      <point x="359" y="1456" type="curve" smooth="yes"/>
      <point x="305" y="1456"/>
      <point x="274" y="1498"/>
      <point x="274" y="1552" type="curve" smooth="yes"/>
      <point x="274" y="1718"/>
      <point x="588" y="1744"/>
      <point x="757" y="1744" type="curve" smooth="yes"/>
      <point x="937" y="1744"/>
      <point x="1016" y="1598"/>
    </contour>
    <contour>
      <point x="195" y="-12" type="line" smooth="yes"/>
      <point x="194" y="-11"/>
      <point x="194" y="-11"/>
      <point x="195" y="-11" type="curve" smooth="yes"/>
      <point x="195" y="-11"/>
      <point x="197" y="-12"/>
      <point x="198" y="-12" type="curve"/>
    </contour>
  </outline>
</glyph>
<glyph name="yen" format="1">
  <advance width="1793"/>
  <unicode hex="00A5"/>
  <outline>
    <contour>
      <point x="1239" y="545" type="line" smooth="yes"/>
      <point x="1295" y="545"/>
      <point x="1376" y="536"/>
      <point x="1376" y="481" type="curve" smooth="yes"/>
      <point x="1376" y="397"/>
      <point x="1283" y="385"/>
      <point x="1191" y="385" type="curve" smooth="yes"/>
      <point x="945" y="385" type="line"/>
      <point x="882" y="186"/>
      <point x="813" y="1"/>
      <point x="557" y="1" type="curve" smooth="yes"/>
      <point x="484" y="1"/>
      <point x="414" y="36"/>
      <point x="414" y="108" type="curve" smooth="yes"/>
      <point x="414" y="154"/>
      <point x="439" y="213"/>
      <point x="484" y="213" type="curve" smooth="yes"/>
      <point x="533" y="213"/>
      <point x="558" y="187"/>
      <point x="600" y="187" type="curve" smooth="yes"/>
      <point x="633" y="187"/>
      <point x="668" y="333"/>
      <point x="683" y="385" type="curve"/>
      <point x="589" y="385" type="line" smooth="yes"/>
      <point x="514" y="385"/>
      <point x="448" y="405"/>
      <point x="448" y="475" type="curve" smooth="yes"/>
      <point x="448" y="536"/>
      <point x="521" y="545"/>
      <point x="589" y="545" type="curve" smooth="yes"/>
      <point x="725" y="545" type="line"/>
      <point x="749" y="641" type="line"/>
      <point x="594" y="641" type="line" smooth="yes"/>
      <point x="517" y="641"/>
      <point x="448" y="660"/>
      <point x="448" y="731" type="curve" smooth="yes"/>
      <point x="448" y="793"/>
      <point x="525" y="801"/>
      <point x="594" y="801" type="curve" smooth="yes"/>
      <point x="743" y="801" type="line"/>
      <point x="702" y="1018"/>
      <point x="668" y="1316"/>
      <point x="536" y="1446" type="curve" smooth="yes"/>
      <point x="518" y="1463"/>
      <point x="500" y="1472"/>
      <point x="480" y="1472" type="curve" smooth="yes"/>
      <point x="382" y="1472"/>
      <point x="277" y="1357"/>
      <point x="203" y="1279" type="curve"/>
      <point x="157" y="1307"/>
      <point x="124" y="1352"/>
      <point x="78" y="1400" type="curve"/>
      <point x="174" y="1513"/>
      <point x="288" y="1620"/>
      <point x="435" y="1672" type="curve" smooth="yes"/>
      <point x="471" y="1685"/>
      <point x="504" y="1691"/>
      <point x="533" y="1691" type="curve" smooth="yes"/>
      <point x="752" y="1691"/>
      <point x="828" y="1378"/>
      <point x="874" y="1186" type="curve" smooth="yes"/>
      <point x="898" y="1087"/>
      <point x="920" y="981"/>
      <point x="940" y="869" type="curve"/>
      <point x="1106" y="1111"/>
      <point x="1264" y="1364"/>
      <point x="1423" y="1603" type="curve" smooth="yes"/>
      <point x="1446" y="1637"/>
      <point x="1498" y="1657"/>
      <point x="1555" y="1657" type="curve" smooth="yes"/>
      <point x="1616" y="1657"/>
      <point x="1660" y="1631"/>
      <point x="1660" y="1570" type="curve" smooth="yes"/>
      <point x="1660" y="1471"/>
      <point x="1592" y="1404"/>
      <point x="1540" y="1332" type="curve" smooth="yes"/>
      <point x="1416" y="1160"/>
      <point x="1276" y="980"/>
      <point x="1148" y="801" type="curve"/>
      <point x="1266" y="801" type="line" smooth="yes"/>
      <point x="1323" y="801"/>
      <point x="1408" y="793"/>
      <point x="1408" y="737" type="curve" smooth="yes"/>
      <point x="1408" y="652"/>
      <point x="1309" y="641"/>
      <point x="1216" y="641" type="curve" smooth="yes"/>
      <point x="1042" y="641" type="line"/>
      <point x="1007" y="545" type="line"/>
    </contour>
  </outline>
</glyph>
<glyph name="ordfeminine" format="1">
  <advance width="928"/>
  <unicode hex="00AA"/>
  <outline>
    <contour>
      <point x="285" y="1084" type="curve" smooth="yes"/>
      <point x="285" y="1027"/>
      <point x="297" y="969"/>
      <point x="353" y="969" type="curve" smooth="yes"/>
      <point x="448" y="969"/>
      <point x="484" y="1130"/>
      <point x="501" y="1213" type="curve" smooth="yes"/>
      <point x="554" y="1467" type="line"/>
      <point x="396" y="1467"/>
      <point x="285" y="1240"/>
    </contour>
    <contour>
      <point x="701" y="1084" type="curve" smooth="yes"/>
      <point x="701" y="1041"/>
      <point x="702" y="997"/>
      <point x="739" y="997" type="curve" smooth="yes"/>
      <point x="807" y="997"/>
      <point x="863" y="1064"/>
      <point x="897" y="1102" type="curve" smooth="yes"/>
      <point x="926" y="1133"/>
      <point x="954" y="1168"/>
      <point x="983" y="1207" type="curve"/>
      <point x="1024" y="1016" type="line"/>
      <point x="963" y="931"/>
      <point x="853" y="799"/>
      <point x="712" y="799" type="curve" smooth="yes"/>
      <point x="621" y="799"/>
      <point x="581" y="869"/>
      <point x="551" y="943" type="curve"/>
      <point x="495" y="879"/>
      <point x="398" y="802"/>
      <point x="281" y="802" type="curve" smooth="yes"/>
      <point x="147" y="802"/>
      <point x="64" y="910"/>
      <point x="64" y="1047" type="curve" smooth="yes"/>
      <point x="64" y="1308"/>
      <point x="229" y="1525"/>
      <point x="412" y="1606" type="curve" smooth="yes"/>
      <point x="450" y="1623"/>
      <point x="490" y="1632"/>
      <point x="530" y="1632" type="curve" smooth="yes"/>
      <point x="590" y="1632"/>
      <point x="580" y="1567"/>
      <point x="642" y="1567" type="curve" smooth="yes"/>
      <point x="650" y="1567" type="line" smooth="yes"/>
      <point x="722" y="1567"/>
      <point x="756" y="1566"/>
      <point x="756" y="1487" type="curve" smooth="yes"/>
      <point x="756" y="1346"/>
      <point x="701" y="1228"/>
    </contour>
  </outline>
</glyph>
<glyph name="periodcentered" format="1">
  <advance width="704"/>
  <unicode hex="00B7"/>
  <outline>
    <contour>
      <point x="503" y="353" type="curve" smooth="yes"/>
      <point x="611" y="353"/>
      <point x="672" y="297"/>
      <point x="672" y="191" type="curve" smooth="yes"/>
      <point x="672" y="76"/>
      <point x="603" y="0"/>
      <point x="484" y="0" type="curve" smooth="yes"/>
      <point x="378" y="0"/>
      <point x="320" y="55"/>
      <point x="320" y="162" type="curve" smooth="yes"/>
      <point x="320" y="277"/>
      <point x="386" y="353"/>
    </contour>
  </outline>
</glyph>
<glyph name="Thorn" format="1">
  <advance width="1216"/>
  <unicode hex="00DE"/>
  <outline>
    <contour>
      <point x="913" y="628" type="line"/>
      <point x="1058" y="643"/>
      <point x="1291" y="680"/>
      <point x="1291" y="824" type="curve" smooth="yes"/>
      <point x="1291" y="1019"/>
      <point x="1143" y="1116"/>
      <point x="968" y="1144" type="curve"/>
    </contour>
    <contour>
      <point x="723" y="1143" type="curve"/>
      <point x="465" y="1081"/>
      <point x="362" y="803"/>
      <point x="362" y="483" type="curve" smooth="yes"/>
      <point x="362" y="336" type="line" smooth="yes"/>
      <point x="362" y="184"/>
      <point x="367" y="-121"/>
      <point x="452" y="-121" type="curve" smooth="yes"/>
      <point x="616" y="-121"/>
      <point x="659" y="242"/>
      <point x="659" y="401" type="curve"/>
      <point x="591" y="430"/>
      <point x="520" y="447"/>
      <point x="520" y="535" type="curve" smooth="yes"/>
      <point x="520" y="578"/>
      <point x="520" y="632"/>
      <point x="563" y="632" type="curve" smooth="yes"/>
      <point x="594" y="632"/>
      <point x="631" y="608"/>
      <point x="672" y="608" type="curve"/>
      <point x="672" y="780"/>
      <point x="706" y="970"/>
    </contour>
    <contour>
      <point x="993" y="1380" type="line"/>
      <point x="1282" y="1341"/>
      <point x="1526" y="1165"/>
      <point x="1526" y="847" type="curve" smooth="yes"/>
      <point x="1526" y="544"/>
      <point x="1189" y="427"/>
      <point x="907" y="393" type="curve"/>
      <point x="858" y="28"/>
      <point x="829" y="-355"/>
      <point x="430" y="-355" type="curve" smooth="yes"/>
      <point x="139" y="-355"/>
      <point x="94" y="168"/>
      <point x="94" y="457" type="curve" smooth="yes"/>
      <point x="94" y="952"/>
      <point x="315" y="1324"/>
      <point x="746" y="1383" type="curve"/>
      <point x="751" y="1424"/>
      <point x="756" y="1458"/>
      <point x="756" y="1489" type="curve"/>
      <point x="762" y="1671"/>
      <point x="807" y="1954"/>
      <point x="992" y="1954" type="curve" smooth="yes"/>
      <point x="1046" y="1954"/>
      <point x="1080" y="1926"/>
      <point x="1080" y="1871" type="curve" smooth="yes"/>
      <point x="1080" y="1862"/>
      <point x="1079" y="1862"/>
      <point x="1079" y="1855" type="curve"/>
      <point x="1008" y="1515" type="line"/>
    </contour>
  </outline>
</glyph>
<glyph name="germandbls" format="1">
  <advance width="1281"/>
  <unicode hex="00DF"/>
  <outline>
    <contour>
      <point x="330" y="159" type="curve" smooth="yes"/>
      <point x="330" y="87"/>
      <point x="332" y="25"/>
      <point x="332" y="-39" type="curve" smooth="yes"/>
      <point x="332" y="-117"/>
      <point x="268" y="-158"/>
      <point x="191" y="-158" type="curve" smooth="yes"/>
      <point x="127" y="-158"/>
      <point x="64" y="-129"/>
      <point x="64" y="-68" type="curve" smooth="yes"/>
      <point x="64" y="609"/>
      <point x="123" y="1359"/>
      <point x="612" y="1558" type="curve" smooth="yes"/>
      <point x="678" y="1585"/>
      <point x="751" y="1598"/>
      <point x="834" y="1598" type="curve" smooth="yes"/>
      <point x="1076" y="1598"/>
      <point x="1293" y="1473"/>
      <point x="1293" y="1240" type="curve" smooth="yes"/>
      <point x="1293" y="982"/>
      <point x="1086" y="852"/>
      <point x="824" y="846" type="curve"/>
      <point x="1079" y="846"/>
      <point x="1261" y="703"/>
      <point x="1261" y="454" type="curve" smooth="yes"/>
      <point x="1261" y="161"/>
      <point x="988" y="3"/>
      <point x="685" y="3" type="curve" smooth="yes"/>
      <point x="595" y="3"/>
      <point x="514" y="26"/>
      <point x="442" y="52" type="curve"/>
      <point x="468" y="234" type="line"/>
      <point x="517" y="219"/>
      <point x="573" y="211"/>
      <point x="633" y="211" type="curve" smooth="yes"/>
      <point x="841" y="211"/>
      <point x="1037" y="282"/>
      <point x="1037" y="489" type="curve" smooth="yes"/>
      <point x="1037" y="724"/>
      <point x="830" y="674"/>
      <point x="668" y="746" type="curve" smooth="yes"/>
      <point x="629" y="763"/>
      <point x="600" y="790"/>
      <point x="600" y="844" type="curve" smooth="yes"/>
      <point x="600" y="931"/>
      <point x="616" y="961"/>
      <point x="703" y="961" type="curve" smooth="yes"/>
      <point x="896" y="961"/>
      <point x="1069" y="1043"/>
      <point x="1069" y="1232" type="curve" smooth="yes"/>
      <point x="1069" y="1355"/>
      <point x="960" y="1404"/>
      <point x="836" y="1404" type="curve" smooth="yes"/>
      <point x="337" y="1404"/>
      <point x="330" y="650"/>
    </contour>
  </outline>
</glyph>
<glyph name="oe" format="1">
  <advance width="1301"/>
  <unicode hex="0153"/>
  <outline>
    <contour>
      <point x="1091" y="665" type="curve" smooth="yes"/>
      <point x="1091" y="711"/>
      <point x="1074" y="768"/>
      <point x="1034" y="768" type="curve" smooth="yes"/>
      <point x="884" y="768"/>
      <point x="847" y="618"/>
      <point x="847" y="470" type="curve"/>
      <point x="946" y="470"/>
      <point x="1091" y="569"/>
    </contour>
    <contour>
      <point x="288" y="396" type="curve" smooth="yes"/>
      <point x="288" y="287"/>
      <point x="324" y="192"/>
      <point x="433" y="192" type="curve" smooth="yes"/>
      <point x="551" y="192"/>
      <point x="608" y="425"/>
      <point x="608" y="551" type="curve" smooth="yes"/>
      <point x="608" y="650"/>
      <point x="587" y="768"/>
      <point x="491" y="768" type="curve" smooth="yes"/>
      <point x="356" y="768"/>
      <point x="288" y="538"/>
    </contour>
    <contour>
      <point x="996" y="212" type="curve" smooth="yes"/>
      <point x="1189" y="212"/>
      <point x="1363" y="355"/>
      <point x="1466" y="455" type="curve"/>
      <point x="1595" y="321" type="line"/>
      <point x="1452" y="173"/>
      <point x="1259" y="0"/>
      <point x="980" y="0" type="curve" smooth="yes"/>
      <point x="829" y="0"/>
      <point x="735" y="102"/>
      <point x="704" y="224" type="curve"/>
      <point x="652" y="119"/>
      <point x="545" y="0"/>
      <point x="394" y="0" type="curve" smooth="yes"/>
      <point x="163" y="0"/>
      <point x="64" y="206"/>
      <point x="64" y="437" type="curve" smooth="yes"/>
      <point x="64" y="674"/>
      <point x="210" y="867"/>
      <point x="379" y="937" type="curve" smooth="yes"/>
      <point x="413" y="951"/>
      <point x="447" y="958"/>
      <point x="481" y="958" type="curve" smooth="yes"/>
      <point x="609" y="958"/>
      <point x="683" y="870"/>
      <point x="736" y="768" type="curve"/>
      <point x="799" y="895"/>
      <point x="891" y="959"/>
      <point x="1012" y="959" type="curve" smooth="yes"/>
      <point x="1166" y="959"/>
      <point x="1275" y="863"/>
      <point x="1275" y="709" type="curve" smooth="yes"/>
      <point x="1275" y="486"/>
      <point x="1050" y="353"/>
      <point x="870" y="303" type="curve"/>
      <point x="897" y="255"/>
      <point x="925" y="212"/>
    </contour>
  </outline>
</glyph>
<glyph name="ogonek" format="1">
  <advance width="537"/>
  <unicode hex="02DB"/>
  <outline>
    <contour>
      <point x="384" y="-288" type="curve" smooth="yes"/>
      <point x="448" y="-288"/>
      <point x="476" y="-218"/>
      <point x="531" y="-218" type="curve" smooth="yes"/>
      <point x="559" y="-218"/>
      <point x="573" y="-256"/>
      <point x="573" y="-286" type="curve" smooth="yes"/>
      <point x="573" y="-315"/>
      <point x="563" y="-341"/>
      <point x="544" y="-352" type="curve" smooth="yes"/>
      <point x="477" y="-393"/>
      <point x="390" y="-448"/>
      <point x="288" y="-448" type="curve" smooth="yes"/>
      <point x="187" y="-448"/>
      <point x="128" y="-391"/>
      <point x="128" y="-292" type="curve" smooth="yes"/>
      <point x="128" y="-197"/>
      <point x="196" y="-105"/>
      <point x="224" y="-32" type="curve" smooth="yes"/>
      <point x="243" y="17"/>
      <point x="288" y="32"/>
      <point x="352" y="32" type="curve" smooth="yes"/>
      <point x="390" y="32"/>
      <point x="414" y="19"/>
      <point x="414" y="-15" type="curve" smooth="yes"/>
      <point x="414" y="-78"/>
      <point x="334" y="-156"/>
      <point x="334" y="-236" type="curve" smooth="yes"/>
      <point x="334" y="-269"/>
      <point x="349" y="-288"/>
    </contour>
  </outline>
</glyph>
<glyph name="endash" format="1">
  <advance width="991"/>
  <unicode hex="2013"/>
  <outline>
    <contour>
      <point x="159" y="384" type="line" smooth="yes"/>
      <point x="99" y="384"/>
      <point x="65" y="430"/>
      <point x="65" y="492" type="curve" smooth="yes"/>
      <point x="65" y="578"/>
      <point x="103" y="608"/>
      <point x="187" y="608" type="curve" smooth="yes"/>
      <point x="807" y="608" type="line" smooth="yes"/>
      <point x="878" y="608"/>
      <point x="928" y="587"/>
      <point x="928" y="518" type="curve" smooth="yes"/>
      <point x="928" y="434"/>
      <point x="888" y="384"/>
      <point x="803" y="384" type="curve" smooth="yes"/>
    </contour>
  </outline>
</glyph>
<glyph name="quotesinglbase" format="1">
  <advance width="609"/>
  <unicode hex="201A"/>
  <outline>
    <contour>
      <point x="368" y="-191" type="curve" smooth="yes"/>
      <point x="321" y="-191"/>
      <point x="287" y="-158"/>
      <point x="287" y="-109" type="curve" smooth="yes"/>
      <point x="287" y="10"/>
      <point x="347" y="128"/>
      <point x="377" y="237" type="curve" smooth="yes"/>
      <point x="392" y="291"/>
      <point x="445" y="321"/>
      <point x="514" y="321" type="curve" smooth="yes"/>
      <point x="592" y="321"/>
      <point x="671" y="282"/>
      <point x="671" y="205" type="curve" smooth="yes"/>
      <point x="671" y="143"/>
      <point x="631" y="102"/>
      <point x="604" y="60" type="curve" smooth="yes"/>
      <point x="582" y="26"/>
      <point x="580" y="26"/>
      <point x="558" y="-8" type="curve" smooth="yes"/>
      <point x="514" y="-75"/>
      <point x="470" y="-191"/>
    </contour>
  </outline>
</glyph>
<glyph name="quotedblright" format="1">
  <advance width="1184"/>
  <unicode hex="201D"/>
  <outline>
    <contour>
      <point x="624" y="1185" type="curve" smooth="yes"/>
      <point x="573" y="1185"/>
      <point x="544" y="1227"/>
      <point x="544" y="1283" type="curve" smooth="yes"/>
      <point x="544" y="1438"/>
      <point x="576" y="1576"/>
      <point x="576" y="1728" type="curve" smooth="yes"/>
      <point x="576" y="1810"/>
      <point x="661" y="1856"/>
      <point x="744" y="1856" type="curve" smooth="yes"/>
      <point x="817" y="1856"/>
      <point x="872" y="1820"/>
      <point x="872" y="1747" type="curve" smooth="yes"/>
      <point x="872" y="1593"/>
      <point x="783" y="1410"/>
      <point x="736" y="1280" type="curve" smooth="yes"/>
      <point x="719" y="1231"/>
      <point x="681" y="1185"/>
    </contour>
    <contour>
      <point x="240" y="1185" type="curve" smooth="yes"/>
      <point x="189" y="1185"/>
      <point x="160" y="1227"/>
      <point x="160" y="1283" type="curve" smooth="yes"/>
      <point x="160" y="1438"/>
      <point x="192" y="1576"/>
      <point x="192" y="1728" type="curve" smooth="yes"/>
      <point x="192" y="1810"/>
      <point x="277" y="1856"/>
      <point x="360" y="1856" type="curve" smooth="yes"/>
      <point x="433" y="1856"/>
      <point x="488" y="1820"/>
      <point x="488" y="1747" type="curve" smooth="yes"/>
      <point x="488" y="1593"/>
      <point x="399" y="1410"/>
      <point x="352" y="1280" type="curve" smooth="yes"/>
      <point x="335" y="1231"/>
      <point x="297" y="1185"/>
    </contour>
  </outline>
</glyph>
<glyph name="dagger" format="1">
  <advance width="1152"/>
  <unicode hex="2020"/>
  <outline>
    <contour>
      <point x="750" y="1525" type="curve" smooth="yes"/>
      <point x="750" y="1415"/>
      <point x="717" y="1323"/>
      <point x="694" y="1216" type="curve"/>
      <point x="939" y="1216" type="line" smooth="yes"/>
      <point x="990" y="1216"/>
      <point x="1024" y="1189"/>
      <point x="1024" y="1137" type="curve" smooth="yes"/>
      <point x="1024" y="1071"/>
      <point x="984" y="1055"/>
      <point x="920" y="1055" type="curve" smooth="yes"/>
      <point x="660" y="1055" type="line"/>
      <point x="612" y="826"/>
      <point x="558" y="586"/>
      <point x="506" y="368" type="curve" smooth="yes"/>
      <point x="488" y="291"/>
      <point x="442" y="255"/>
      <point x="352" y="255" type="curve" smooth="yes"/>
      <point x="295" y="255"/>
      <point x="280" y="312"/>
      <point x="280" y="369" type="curve" smooth="yes"/>
      <point x="280" y="529"/>
      <point x="348" y="698"/>
      <point x="385" y="854" type="curve" smooth="yes"/>
      <point x="433" y="1055" type="line"/>
      <point x="224" y="1055" type="line" smooth="yes"/>
      <point x="162" y="1055"/>
      <point x="128" y="1070"/>
      <point x="128" y="1129" type="curve" smooth="yes"/>
      <point x="128" y="1188"/>
      <point x="175" y="1216"/>
      <point x="234" y="1216" type="curve" smooth="yes"/>
      <point x="470" y="1216" type="line"/>
      <point x="507" y="1370"/>
      <point x="500" y="1606"/>
      <point x="687" y="1606" type="curve" smooth="yes"/>
      <point x="734" y="1606"/>
      <point x="750" y="1572"/>
    </contour>
  </outline>
</glyph>
<glyph name="bullet" format="1">
  <advance width="1120"/>
  <unicode hex="2022"/>
  <outline>
    <contour>
      <point x="512" y="251" type="curve" smooth="yes"/>
      <point x="342" y="251"/>
      <point x="256" y="368"/>
      <point x="256" y="544" type="curve" smooth="yes"/>
      <point x="256" y="756"/>
      <point x="431" y="896"/>
      <point x="640" y="896" type="curve" smooth="yes"/>
      <point x="787" y="896"/>
      <point x="864" y="822"/>
      <point x="864" y="672" type="curve" smooth="yes"/>
      <point x="864" y="447"/>
      <point x="730" y="251"/>
    </contour>
  </outline>
</glyph>
<glyph name="guilsinglleft" format="1">
  <advance width="1089"/>
  <unicode hex="2039"/>
  <outline>
    <contour>
      <point x="914" y="158" type="curve" smooth="yes"/>
      <point x="914" y="107"/>
      <point x="856" y="73"/>
      <point x="802" y="73" type="curve" smooth="yes"/>
      <point x="782" y="73"/>
      <point x="761" y="78"/>
      <point x="738" y="87" type="curve" smooth="yes"/>
      <point x="517" y="170"/>
      <point x="347" y="268"/>
      <point x="168" y="385" type="curve" smooth="yes"/>
      <point x="121" y="415"/>
      <point x="81" y="469"/>
      <point x="81" y="540" type="curve" smooth="yes"/>
      <point x="81" y="667"/>
      <point x="189" y="739"/>
      <point x="282" y="778" type="curve" smooth="yes"/>
      <point x="780" y="988" type="line" smooth="yes"/>
      <point x="796" y="995"/>
      <point x="813" y="999"/>
      <point x="833" y="999" type="curve" smooth="yes"/>
      <point x="895" y="999"/>
      <point x="945" y="958"/>
      <point x="945" y="896" type="curve" smooth="yes"/>
      <point x="945" y="835"/>
      <point x="898" y="796"/>
      <point x="846" y="773" type="curve" smooth="yes"/>
      <point x="320" y="544" type="line"/>
      <point x="789" y="313" type="line"/>
      <point x="845" y="291"/>
      <point x="914" y="235"/>
    </contour>
  </outline>
</glyph>
<glyph name="uniFB00" format="1">
  <advance width="1393"/>
  <unicode hex="FB00"/>
  <outline>
    <contour>
      <point x="302" y="-379" type="curve" smooth="yes"/>
      <point x="421" y="-379"/>
      <point x="422" y="-173"/>
      <point x="422" y="-62" type="curve" smooth="yes"/>
      <point x="422" y="-57" type="line" smooth="yes"/>
      <point x="422" y="187"/>
      <point x="358" y="384"/>
      <point x="286" y="522" type="curve"/>
      <point x="277" y="330"/>
      <point x="259" y="144"/>
      <point x="259" y="-47" type="curve" smooth="yes"/>
      <point x="259" y="-187"/>
      <point x="263" y="-379"/>
    </contour>
    <contour>
      <point x="795" y="1529" type="curve" smooth="yes"/>
      <point x="795" y="1583"/>
      <point x="786" y="1631"/>
      <point x="745" y="1631" type="curve" smooth="yes"/>
      <point x="516" y="1631"/>
      <point x="356" y="775"/>
      <point x="330" y="686" type="curve"/>
      <point x="486" y="879"/>
      <point x="795" y="1266"/>
    </contour>
    <contour>
      <point x="1016" y="-455" type="curve" smooth="yes"/>
      <point x="811" y="-455"/>
      <point x="770" y="-189"/>
      <point x="770" y="52" type="curve" smooth="yes"/>
      <point x="770" y="189"/>
      <point x="776" y="324"/>
      <point x="780" y="460" type="curve"/>
      <point x="702" y="435"/>
      <point x="600" y="429"/>
      <point x="514" y="427" type="curve"/>
      <point x="570" y="281"/>
      <point x="633" y="100"/>
      <point x="633" y="-119" type="curve" smooth="yes"/>
      <point x="633" y="-320"/>
      <point x="530" y="-604"/>
      <point x="270" y="-604" type="curve" smooth="yes"/>
      <point x="62" y="-604"/>
      <point x="34" y="-276"/>
      <point x="34" y="-38" type="curve" smooth="yes"/>
      <point x="34" y="521"/>
      <point x="226" y="1856"/>
      <point x="782" y="1856" type="curve" smooth="yes"/>
      <point x="907" y="1856"/>
      <point x="982" y="1762"/>
      <point x="982" y="1624" type="curve" smooth="yes"/>
      <point x="982" y="1243"/>
      <point x="642" y="833"/>
      <point x="445" y="603" type="curve"/>
      <point x="474" y="593"/>
      <point x="520" y="587"/>
      <point x="559" y="587" type="curve" smooth="yes"/>
      <point x="664" y="587"/>
      <point x="721" y="602"/>
      <point x="795" y="626" type="curve"/>
      <point x="878" y="1127"/>
      <point x="1079" y="1706"/>
      <point x="1459" y="1706" type="curve" smooth="yes"/>
      <point x="1584" y="1706"/>
      <point x="1659" y="1612"/>
      <point x="1659" y="1474" type="curve" smooth="yes"/>
      <point x="1659" y="1149"/>
      <point x="1307" y="799"/>
      <point x="1102" y="603" type="curve"/>
      <point x="1131" y="593"/>
      <point x="1177" y="587"/>
      <point x="1216" y="587" type="curve" smooth="yes"/>
      <point x="1408" y="587"/>
      <point x="1490" y="667"/>
      <point x="1650" y="785" type="curve" smooth="yes"/>
      <point x="1656" y="790"/>
      <point x="1662" y="791"/>
      <point x="1668" y="791" type="curve" smooth="yes"/>
      <point x="1691" y="791"/>
      <point x="1704" y="761"/>
      <point x="1704" y="722" type="curve" smooth="yes"/>
      <point x="1704" y="461"/>
      <point x="1397" y="436"/>
      <point x="1171" y="427" type="curve"/>
      <point x="1231" y="292"/>
      <point x="1300" y="124"/>
      <point x="1300" y="-79" type="curve" smooth="yes"/>
      <point x="1300" y="-228"/>
      <point x="1256" y="-455"/>
    </contour>
    <contour>
      <point x="1019" y="-229" type="curve" smooth="yes"/>
      <point x="1085" y="-229"/>
      <point x="1107" y="-159"/>
      <point x="1107" y="-64" type="curve" smooth="yes"/>
      <point x="1107" y="148"/>
      <point x="970" y="474"/>
      <point x="953" y="502" type="curve"/>
      <point x="954" y="438"/>
      <point x="952" y="370"/>
      <point x="952" y="271" type="curve" smooth="yes"/>
      <point x="952" y="51"/>
      <point x="960" y="-229"/>
    </contour>
    <contour>
      <point x="1474" y="1414" type="curve" smooth="yes"/>
      <point x="1474" y="1454"/>
      <point x="1455" y="1482"/>
      <point x="1412" y="1482" type="curve" smooth="yes"/>
      <point x="1179" y="1482"/>
      <point x="1013" y="760"/>
      <point x="987" y="686" type="curve"/>
      <point x="1135" y="794"/>
      <point x="1474" y="1227"/>
    </contour>
  </outline>
</glyph>
<glyph name="El" format="1">
  <advance width="2039"/>
  <outline>
    <contour>
      <point x="2089" y="1593" type="curve" smooth="yes"/>
      <point x="2089" y="1620"/>
      <point x="2079" y="1641"/>
      <point x="2058" y="1641" type="curve" smooth="yes"/>
      <point x="1832" y="1641"/>
      <point x="1748" y="975"/>
      <point x="1748" y="740" type="curve"/>
      <point x="1870" y="955"/>
      <point x="1993" y="1198"/>
      <point x="2064" y="1460" type="curve" smooth="yes"/>
      <point x="2077" y="1508"/>
      <point x="2089" y="1552"/>
    </contour>
    <contour>
      <point x="352" y="390" type="curve" smooth="yes"/>
      <point x="352" y="195"/>
      <point x="475" y="126"/>
      <point x="679" y="126" type="curve" smooth="yes"/>
      <point x="944" y="126"/>
      <point x="1295" y="283"/>
      <point x="1500" y="542" type="curve"/>
      <point x="1504" y="1013"/>
      <point x="1619" y="1480"/>
      <point x="1830" y="1748" type="curve" smooth="yes"/>
      <point x="1900" y="1837"/>
      <point x="1993" y="1920"/>
      <point x="2133" y="1920" type="curve" smooth="yes"/>
      <point x="2248" y="1920"/>
      <point x="2277" y="1810"/>
      <point x="2277" y="1694" type="curve" smooth="yes"/>
      <point x="2277" y="1341"/>
      <point x="2110" y="1047"/>
      <point x="1962" y="821" type="curve" smooth="yes"/>
      <point x="1902" y="729"/>
      <point x="1839" y="644"/>
      <point x="1776" y="565" type="curve" smooth="yes"/>
      <point x="1761" y="546"/>
      <point x="1758" y="498"/>
      <point x="1758" y="461" type="curve" smooth="yes"/>
      <point x="1758" y="393"/>
      <point x="1768" y="232"/>
      <point x="1824" y="232" type="curve" smooth="yes"/>
      <point x="1982" y="232"/>
      <point x="2157" y="447"/>
      <point x="2209" y="447" type="curve" smooth="yes"/>
      <point x="2250" y="447"/>
      <point x="2269" y="386"/>
      <point x="2269" y="330" type="curve" smooth="yes"/>
      <point x="2269" y="290"/>
      <point x="2261" y="252"/>
      <point x="2246" y="236" type="curve"/>
      <point x="2118" y="140"/>
      <point x="1958" y="0"/>
      <point x="1757" y="0" type="curve" smooth="yes"/>
      <point x="1627" y="0"/>
      <point x="1555" y="149"/>
      <point x="1522" y="307" type="curve"/>
      <point x="1312" y="75"/>
      <point x="1006" y="-96"/>
      <point x="637" y="-96" type="curve" smooth="yes"/>
      <point x="316" y="-96"/>
      <point x="64" y="44"/>
      <point x="64" y="364" type="curve" smooth="yes"/>
      <point x="64" y="717"/>
      <point x="339" y="878"/>
      <point x="696" y="887" type="curve"/>
      <point x="437" y="887"/>
      <point x="260" y="1026"/>
      <point x="260" y="1280" type="curve" smooth="yes"/>
      <point x="260" y="1602"/>
      <point x="593" y="1726"/>
      <point x="912" y="1726" type="curve" smooth="yes"/>
      <point x="1168" y="1726"/>
      <point x="1469" y="1615"/>
      <point x="1469" y="1384" type="curve" smooth="yes"/>
      <point x="1469" y="1275"/>
      <point x="1382" y="1174"/>
      <point x="1246" y="1174" type="curve" smooth="yes"/>
      <point x="1232" y="1174"/>
      <point x="1225" y="1186"/>
      <point x="1225" y="1211" type="curve"/>
      <point x="1261" y="1376" type="line"/>
      <point x="1178" y="1457"/>
      <point x="1007" y="1501"/>
      <point x="859" y="1501" type="curve" smooth="yes"/>
      <point x="679" y="1501"/>
      <point x="522" y="1445"/>
      <point x="522" y="1266" type="curve" smooth="yes"/>
      <point x="522" y="1009"/>
      <point x="849" y="1070"/>
      <point x="985" y="950" type="curve" smooth="yes"/>
      <point x="1020" y="919"/>
      <point x="1024" y="873"/>
      <point x="1024" y="811" type="curve" smooth="yes"/>
      <point x="1024" y="734"/>
      <point x="1000" y="704"/>
      <point x="921" y="704" type="curve" smooth="yes"/>
      <point x="883" y="704"/>
      <point x="823" y="710"/>
      <point x="783" y="710" type="curve" smooth="yes"/>
      <point x="565" y="710"/>
      <point x="352" y="607"/>
    </contour>
  </outline>
</glyph>
<glyph name="K.alt" format="1">
  <advance width="1821"/>
  <outline>
    <contour>
      <point x="1011" y="1632" type="curve" smooth="yes"/>
      <point x="1011" y="1409"/>
      <point x="977" y="1205"/>
      <point x="964" y="992" type="curve"/>
      <point x="1403" y="992"/>
      <point x="1544" y="1202"/>
      <point x="1604" y="1536" type="curve" smooth="yes"/>
      <point x="1627" y="1665"/>
      <point x="1611" y="1696"/>
      <point x="1732" y="1696" type="curve" smooth="yes"/>
      <point x="1830" y="1696"/>
      <point x="1865" y="1648"/>
      <point x="1865" y="1575" type="curve" smooth="yes"/>
      <point x="1865" y="1558"/>
      <point x="1863" y="1540"/>
      <point x="1860" y="1521" type="curve" smooth="yes"/>
      <point x="1790" y="1108"/>
      <point x="1651" y="800"/>
      <point x="1114" y="800" type="curve"/>
      <point x="1275" y="386"/>
      <point x="1438" y="-186"/>
      <point x="1850" y="-186" type="curve" smooth="yes"/>
      <point x="2000" y="-186"/>
      <point x="2132" y="-160"/>
      <point x="2219" y="-130" type="curve" smooth="yes"/>
      <point x="2251" y="-119"/>
      <point x="2274" y="-108"/>
      <point x="2294" y="-108" type="curve" smooth="yes"/>
      <point x="2350" y="-108"/>
      <point x="2369" y="-159"/>
      <point x="2369" y="-212" type="curve" smooth="yes"/>
      <point x="2369" y="-264"/>
      <point x="2352" y="-321"/>
      <point x="2335" y="-326" type="curve" smooth="yes"/>
      <point x="2202" y="-366"/>
      <point x="2038" y="-410"/>
      <point x="1824" y="-410" type="curve" smooth="yes"/>
      <point x="1219" y="-410"/>
      <point x="1068" y="256"/>
      <point x="900" y="704" type="curve"/>
      <point x="818" y="388"/>
      <point x="693" y="94"/>
      <point x="428" y="-20" type="curve" smooth="yes"/>
      <point x="360" y="-49"/>
      <point x="289" y="-64"/>
      <point x="214" y="-64" type="curve" smooth="yes"/>
      <point x="121" y="-64"/>
      <point x="-96" y="-49"/>
      <point x="-96" y="36" type="curve" smooth="yes"/>
      <point x="-96" y="98"/>
      <point x="-31" y="196"/>
      <point x="31" y="196" type="curve" smooth="yes"/>
      <point x="78" y="196"/>
      <point x="122" y="160"/>
      <point x="179" y="160" type="curve" smooth="yes"/>
      <point x="491" y="160"/>
      <point x="594" y="599"/>
      <point x="653" y="864" type="curve" smooth="yes"/>
      <point x="696" y="1056"/>
      <point x="727" y="1274"/>
      <point x="749" y="1485" type="curve"/>
      <point x="761" y="1568" type="line"/>
      <point x="472" y="1568"/>
      <point x="260" y="1380"/>
      <point x="260" y="1097" type="curve" smooth="yes"/>
      <point x="260" y="1043"/>
      <point x="197" y="1024"/>
      <point x="136" y="1024" type="curve" smooth="yes"/>
      <point x="56" y="1024"/>
      <point x="-28" y="1040"/>
      <point x="-28" y="1111" type="curve" smooth="yes"/>
      <point x="-28" y="1120" type="line" smooth="yes"/>
      <point x="-28" y="1563"/>
      <point x="448" y="1728"/>
      <point x="885" y="1728" type="curve" smooth="yes"/>
      <point x="958" y="1728"/>
      <point x="1011" y="1702"/>
    </contour>
  </outline>
</glyph>
<glyph name="NameMe.266" format="1">
  <advance width="1433"/>
  <outline>
    <contour>
      <point x="398" y="1080" type="curve"/>
      <point x="419" y="1077"/>
      <point x="438" y="1076"/>
      <point x="459" y="1073" type="curve"/>
      <point x="518" y="1173"/>
      <point x="583" y="1291"/>
      <point x="623" y="1408" type="curve" smooth="yes"/>
      <point x="634" y="1441"/>
      <point x="640" y="1469"/>
      <point x="640" y="1490" type="curve" smooth="yes"/>
      <point x="640" y="1532"/>
      <point x="630" y="1568"/>
      <point x="587" y="1568" type="curve" smooth="yes"/>
      <point x="480" y="1568"/>
      <point x="420" y="1178"/>
    </contour>
    <contour>
      <point x="772" y="1054" type="curve" smooth="yes"/>
      <point x="814" y="1054" type="line" smooth="yes"/>
      <point x="905" y="1054"/>
      <point x="960" y="1050"/>
      <point x="960" y="975" type="curve" smooth="yes"/>
      <point x="960" y="935"/>
      <point x="933" y="896"/>
      <point x="896" y="896" type="curve" smooth="yes"/>
      <point x="512" y="896" type="line"/>
      <point x="477" y="847"/>
      <point x="435" y="793"/>
      <point x="399" y="748" type="curve"/>
      <point x="388" y="628"/>
      <point x="371" y="513"/>
      <point x="371" y="420" type="curve" smooth="yes"/>
      <point x="371" y="291"/>
      <point x="403" y="204"/>
      <point x="530" y="204" type="curve" smooth="yes"/>
      <point x="532" y="204" type="line" smooth="yes"/>
      <point x="700" y="204"/>
      <point x="874" y="361"/>
      <point x="960" y="450" type="curve" smooth="yes"/>
      <point x="986" y="478"/>
      <point x="1032" y="513"/>
      <point x="1064" y="513" type="curve" smooth="yes"/>
      <point x="1104" y="513"/>
      <point x="1136" y="435"/>
      <point x="1136" y="385" type="curve" smooth="yes"/>
      <point x="1136" y="376"/>
      <point x="1135" y="368"/>
      <point x="1133" y="361" type="curve"/>
      <point x="1012" y="199"/>
      <point x="744" y="0"/>
      <point x="449" y="0" type="curve" smooth="yes"/>
      <point x="227" y="0"/>
      <point x="137" y="204"/>
      <point x="137" y="509" type="curve" smooth="yes"/>
      <point x="137" y="634"/>
      <point x="152" y="776"/>
      <point x="179" y="928" type="curve"/>
      <point x="101" y="938"/>
      <point x="56" y="950"/>
      <point x="-32" y="960" type="curve" smooth="yes"/>
      <point x="-78" y="966"/>
      <point x="-96" y="987"/>
      <point x="-96" y="1037" type="curve" smooth="yes"/>
      <point x="-96" y="1080"/>
      <point x="-39" y="1089"/>
      <point x="28" y="1089" type="curve" smooth="yes"/>
      <point x="74" y="1089"/>
      <point x="125" y="1085"/>
      <point x="164" y="1085" type="curve" smooth="yes"/>
      <point x="181" y="1085"/>
      <point x="196" y="1086"/>
      <point x="207" y="1088" type="curve"/>
      <point x="255" y="1329"/>
      <point x="337" y="1591"/>
      <point x="481" y="1732" type="curve" smooth="yes"/>
      <point x="522" y="1772"/>
      <point x="564" y="1792"/>
      <point x="609" y="1792" type="curve" smooth="yes"/>
      <point x="743" y="1792"/>
      <point x="800" y="1637"/>
      <point x="800" y="1499" type="curve" smooth="yes"/>
      <point x="800" y="1318"/>
      <point x="698" y="1174"/>
      <point x="623" y="1055" type="curve"/>
      <point x="634" y="1054"/>
      <point x="649" y="1053"/>
      <point x="668" y="1053" type="curve" smooth="yes"/>
      <point x="697" y="1053"/>
      <point x="735" y="1054"/>
    </contour>
  </outline>
</glyph>
<glyph name="Th" format="1">
  <advance width="1900"/>
  <outline>
    <contour>
      <point x="127" y="1202" type="curve" smooth="yes"/>
      <point x="33" y="1202"/>
      <point x="-34" y="1247"/>
      <point x="-34" y="1330" type="curve" smooth="yes"/>
      <point x="-34" y="1719"/>
      <point x="514" y="1728"/>
      <point x="913" y="1728" type="curve" smooth="yes"/>
      <point x="1284" y="1728"/>
      <point x="1627" y="1699"/>
      <point x="1965" y="1633" type="curve" smooth="yes"/>
      <point x="2017" y="1623"/>
      <point x="2052" y="1594"/>
      <point x="2052" y="1539" type="curve" smooth="yes"/>
      <point x="2052" y="1485"/>
      <point x="2007" y="1429"/>
      <point x="1953" y="1429" type="curve" smooth="yes"/>
      <point x="1949" y="1429"/>
      <point x="1946" y="1430"/>
      <point x="1942" y="1430" type="curve" smooth="yes"/>
      <point x="1806" y="1451"/>
      <point x="1672" y="1469"/>
      <point x="1537" y="1484" type="curve"/>
      <point x="1328" y="1146"/>
      <point x="1242" y="581"/>
      <point x="1242" y="487" type="curve"/>
      <point x="1264" y="487" type="line"/>
      <point x="1368" y="628"/>
      <point x="1568" y="978"/>
      <point x="1799" y="978" type="curve" smooth="yes"/>
      <point x="1854" y="978"/>
      <point x="1881" y="931"/>
      <point x="1881" y="868" type="curve" smooth="yes"/>
      <point x="1881" y="673"/>
      <point x="1733" y="503"/>
      <point x="1733" y="301" type="curve" smooth="yes"/>
      <point x="1733" y="269"/>
      <point x="1737" y="236"/>
      <point x="1763" y="236" type="curve" smooth="yes"/>
      <point x="1854" y="236"/>
      <point x="1931" y="310"/>
      <point x="1981" y="357" type="curve"/>
      <point x="2021" y="392"/>
      <point x="2061" y="433"/>
      <point x="2100" y="478" type="curve"/>
      <point x="2104" y="212" type="line"/>
      <point x="2000" y="134"/>
      <point x="1854" y="0"/>
      <point x="1681" y="0" type="curve" smooth="yes"/>
      <point x="1558" y="0"/>
      <point x="1479" y="100"/>
      <point x="1479" y="226" type="curve" smooth="yes"/>
      <point x="1479" y="384"/>
      <point x="1548" y="534"/>
      <point x="1609" y="648" type="curve" smooth="yes"/>
      <point x="1617" y="663"/>
      <point x="1621" y="672"/>
      <point x="1623" y="674" type="curve"/>
      <point x="1603" y="677" type="line"/>
      <point x="1499" y="614"/>
      <point x="1405" y="462"/>
      <point x="1332" y="354" type="curve"/>
      <point x="1265" y="258"/>
      <point x="1222" y="141"/>
      <point x="1155" y="44" type="curve"/>
      <point x="1139" y="19"/>
      <point x="1121" y="0"/>
      <point x="1082" y="0" type="curve" smooth="yes"/>
      <point x="985" y="0"/>
      <point x="983" y="136"/>
      <point x="983" y="240" type="curve" smooth="yes"/>
      <point x="983" y="255" type="line" smooth="yes"/>
      <point x="983" y="426"/>
      <point x="1006" y="1025"/>
      <point x="1339" y="1500" type="curve"/>
      <point x="1206" y="1509"/>
      <point x="1072" y="1515"/>
      <point x="933" y="1521" type="curve"/>
      <point x="792" y="949"/>
      <point x="690" y="554"/>
      <point x="573" y="92" type="curve" smooth="yes"/>
      <point x="556" y="26"/>
      <point x="505" y="-64"/>
      <point x="428" y="-64" type="curve" smooth="yes"/>
      <point x="351" y="-64"/>
      <point x="297" y="-29"/>
      <point x="297" y="50" type="curve" smooth="yes"/>
      <point x="297" y="63"/>
      <point x="301" y="76"/>
      <point x="303" y="92" type="curve" smooth="yes"/>
      <point x="362" y="493"/>
      <point x="512" y="817"/>
      <point x="634" y="1176" type="curve" smooth="yes"/>
      <point x="669" y="1279"/>
      <point x="706" y="1394"/>
      <point x="747" y="1521" type="curve"/>
      <point x="579" y="1508"/>
      <point x="287" y="1504"/>
      <point x="287" y="1330" type="curve" smooth="yes"/>
      <point x="287" y="1247"/>
      <point x="219" y="1202"/>
    </contour>
  </outline>
</glyph>
<glyph name="b.fina" format="1">
  <advance width="1344"/>
  <outline>
    <contour>
      <point x="326" y="865" type="curve"/>
      <point x="451" y="1101"/>
      <point x="666" y="1318"/>
      <point x="666" y="1648" type="curve" smooth="yes"/>
      <point x="666" y="1683"/>
      <point x="651" y="1728"/>
      <point x="615" y="1728" type="curve" smooth="yes"/>
      <point x="515" y="1728"/>
      <point x="350" y="994"/>
    </contour>
    <contour>
      <point x="698" y="537" type="curve" smooth="yes"/>
      <point x="698" y="647"/>
      <point x="652" y="727"/>
      <point x="573" y="727" type="curve" smooth="yes"/>
      <point x="360" y="727"/>
      <point x="328" y="404"/>
      <point x="314" y="225" type="curve"/>
      <point x="355" y="208"/>
      <point x="401" y="192"/>
      <point x="452" y="192" type="curve" smooth="yes"/>
      <point x="642" y="192"/>
      <point x="698" y="406"/>
    </contour>
    <contour>
      <point x="624" y="1920" type="curve" smooth="yes"/>
      <point x="809" y="1920"/>
      <point x="882" y="1779"/>
      <point x="882" y="1631" type="curve" smooth="yes"/>
      <point x="882" y="1280"/>
      <point x="625" y="1014"/>
      <point x="462" y="816" type="curve"/>
      <point x="478" y="805" type="line"/>
      <point x="519" y="863"/>
      <point x="615" y="914"/>
      <point x="709" y="914" type="curve" smooth="yes"/>
      <point x="825" y="914"/>
      <point x="937" y="836"/>
      <point x="937" y="597" type="curve" smooth="yes"/>
      <point x="937" y="336"/>
      <point x="746" y="2"/>
      <point x="483" y="2" type="curve" smooth="yes"/>
      <point x="318" y="2"/>
      <point x="176" y="69"/>
      <point x="76" y="137" type="curve" smooth="yes"/>
      <point x="64" y="145"/>
      <point x="59" y="150"/>
      <point x="58" y="152" type="curve"/>
      <point x="76" y="638"/>
      <point x="165" y="1123"/>
      <point x="300" y="1512" type="curve" smooth="yes"/>
      <point x="352" y="1662"/>
      <point x="442" y="1920"/>
    </contour>
  </outline>
</glyph>
<glyph name="e.fina" format="1">
  <advance width="840"/>
  <outline>
    <contour>
      <point x="583" y="678" type="curve" smooth="yes"/>
      <point x="583" y="731"/>
      <point x="558" y="771"/>
      <point x="510" y="771" type="curve" smooth="yes"/>
      <point x="352" y="771"/>
      <point x="294" y="573"/>
      <point x="294" y="437" type="curve"/>
      <point x="387" y="470"/>
      <point x="583" y="558"/>
    </contour>
    <contour>
      <point x="478" y="-6" type="curve" smooth="yes"/>
      <point x="203" y="-6"/>
      <point x="50" y="135"/>
      <point x="50" y="417" type="curve" smooth="yes"/>
      <point x="50" y="687"/>
      <point x="204" y="959"/>
      <point x="498" y="959" type="curve" smooth="yes"/>
      <point x="652" y="959"/>
      <point x="761" y="863"/>
      <point x="761" y="709" type="curve" smooth="yes"/>
      <point x="761" y="486"/>
      <point x="515" y="340"/>
      <point x="317" y="290" type="curve"/>
      <point x="338" y="223"/>
      <point x="402" y="181"/>
      <point x="493" y="181" type="curve" smooth="yes"/>
      <point x="666" y="181"/>
      <point x="853" y="336"/>
      <point x="959" y="410" type="curve" smooth="yes"/>
      <point x="970" y="417"/>
      <point x="981" y="422"/>
      <point x="993" y="422" type="curve" smooth="yes"/>
      <point x="1037" y="422"/>
      <point x="1085" y="369"/>
      <point x="1085" y="321" type="curve" smooth="yes"/>
      <point x="1085" y="303"/>
      <point x="1079" y="284"/>
      <point x="1061" y="271" type="curve"/>
      <point x="922" y="159"/>
      <point x="760" y="-6"/>
    </contour>
  </outline>
</glyph>
<glyph name="f.init" format="1">
  <advance width="867"/>
  <outline>
    <contour>
      <point x="1170" y="652" type="curve" smooth="yes"/>
      <point x="1170" y="453"/>
      <point x="896" y="434"/>
      <point x="694" y="427" type="curve"/>
      <point x="750" y="305"/>
      <point x="813" y="154"/>
      <point x="813" y="-29" type="curve" smooth="yes"/>
      <point x="813" y="-267"/>
      <point x="710" y="-604"/>
      <point x="450" y="-604" type="curve" smooth="yes"/>
      <point x="242" y="-604"/>
      <point x="214" y="-276"/>
      <point x="214" y="-38" type="curve" smooth="yes"/>
      <point x="214" y="56"/>
      <point x="219" y="173"/>
      <point x="231" y="302" type="curve"/>
      <point x="138" y="225"/>
      <point x="37" y="154"/>
      <point x="-76" y="85" type="curve" smooth="yes"/>
      <point x="-83" y="81"/>
      <point x="-90" y="77"/>
      <point x="-99" y="77" type="curve" smooth="yes"/>
      <point x="-144" y="77"/>
      <point x="-207" y="146"/>
      <point x="-207" y="191" type="curve" smooth="yes"/>
      <point x="-207" y="203"/>
      <point x="-203" y="212"/>
      <point x="-193" y="219" type="curve" smooth="yes"/>
      <point x="20" y="364"/>
      <point x="133" y="442"/>
      <point x="263" y="570" type="curve"/>
      <point x="350" y="1166"/>
      <point x="562" y="1856"/>
      <point x="962" y="1856" type="curve" smooth="yes"/>
      <point x="1087" y="1856"/>
      <point x="1162" y="1762"/>
      <point x="1162" y="1624" type="curve" smooth="yes"/>
      <point x="1162" y="1243"/>
      <point x="822" y="833"/>
      <point x="625" y="603" type="curve"/>
      <point x="654" y="593"/>
      <point x="700" y="587"/>
      <point x="739" y="587" type="curve" smooth="yes"/>
      <point x="906" y="587"/>
      <point x="978" y="638"/>
      <point x="1116" y="715" type="curve" smooth="yes"/>
      <point x="1123" y="719"/>
      <point x="1128" y="721"/>
      <point x="1134" y="721" type="curve" smooth="yes"/>
      <point x="1157" y="721"/>
      <point x="1170" y="691"/>
    </contour>
    <contour>
      <point x="482" y="-379" type="curve" smooth="yes"/>
      <point x="601" y="-379"/>
      <point x="602" y="-173"/>
      <point x="602" y="-62" type="curve" smooth="yes"/>
      <point x="602" y="-57" type="line" smooth="yes"/>
      <point x="602" y="187"/>
      <point x="538" y="384"/>
      <point x="466" y="522" type="curve"/>
      <point x="457" y="330"/>
      <point x="439" y="144"/>
      <point x="439" y="-47" type="curve" smooth="yes"/>
      <point x="439" y="-187"/>
      <point x="443" y="-379"/>
    </contour>
    <contour>
      <point x="975" y="1529" type="curve" smooth="yes"/>
      <point x="975" y="1583"/>
      <point x="966" y="1631"/>
      <point x="925" y="1631" type="curve" smooth="yes"/>
      <point x="696" y="1631"/>
      <point x="536" y="775"/>
      <point x="510" y="686" type="curve"/>
      <point x="666" y="879"/>
      <point x="975" y="1266"/>
    </contour>
  </outline>
</glyph>
<glyph name="h.fina" format="1">
  <advance width="1161"/>
  <outline>
    <contour>
      <point x="314" y="710" type="curve"/>
      <point x="387" y="880"/>
      <point x="473" y="1069"/>
      <point x="540" y="1240" type="curve" smooth="yes"/>
      <point x="596" y="1382"/>
      <point x="652" y="1513"/>
      <point x="652" y="1653" type="curve" smooth="yes"/>
      <point x="652" y="1704"/>
      <point x="645" y="1729"/>
      <point x="632" y="1729" type="curve" smooth="yes"/>
      <point x="615" y="1729"/>
      <point x="589" y="1701"/>
      <point x="555" y="1644" type="curve" smooth="yes"/>
      <point x="521" y="1587"/>
      <point x="474" y="1508"/>
      <point x="435" y="1397" type="curve" smooth="yes"/>
      <point x="365" y="1196"/>
      <point x="333" y="952"/>
    </contour>
    <contour>
      <point x="665" y="1920" type="curve" smooth="yes"/>
      <point x="803" y="1920"/>
      <point x="845" y="1836"/>
      <point x="845" y="1699" type="curve" smooth="yes"/>
      <point x="845" y="1414"/>
      <point x="701" y="1163"/>
      <point x="600" y="958" type="curve" smooth="yes"/>
      <point x="546" y="849"/>
      <point x="484" y="734"/>
      <point x="431" y="636" type="curve"/>
      <point x="451" y="622" type="line"/>
      <point x="542" y="734"/>
      <point x="653" y="864"/>
      <point x="778" y="942" type="curve" smooth="yes"/>
      <point x="815" y="965"/>
      <point x="849" y="978"/>
      <point x="881" y="978" type="curve" smooth="yes"/>
      <point x="940" y="978"/>
      <point x="968" y="931"/>
      <point x="968" y="868" type="curve" smooth="yes"/>
      <point x="968" y="666"/>
      <point x="807" y="490"/>
      <point x="807" y="281" type="curve" smooth="yes"/>
      <point x="807" y="239"/>
      <point x="815" y="196"/>
      <point x="861" y="196" type="curve" smooth="yes"/>
      <point x="976" y="196"/>
      <point x="1171" y="300"/>
      <point x="1273" y="363" type="curve" smooth="yes"/>
      <point x="1323" y="394"/>
      <point x="1357" y="414"/>
      <point x="1388" y="414" type="curve" smooth="yes"/>
      <point x="1429" y="414"/>
      <point x="1453" y="387"/>
      <point x="1453" y="350" type="curve" smooth="yes"/>
      <point x="1453" y="316"/>
      <point x="1441" y="273"/>
      <point x="1383" y="232" type="curve" smooth="yes"/>
      <point x="1242" y="132"/>
      <point x="1023" y="0"/>
      <point x="771" y="0" type="curve" smooth="yes"/>
      <point x="660" y="0"/>
      <point x="576" y="90"/>
      <point x="576" y="206" type="curve" smooth="yes"/>
      <point x="576" y="212"/>
      <point x="576" y="219"/>
      <point x="577" y="226" type="curve" smooth="yes"/>
      <point x="597" y="454"/>
      <point x="695" y="620"/>
      <point x="695" y="647" type="curve" smooth="yes"/>
      <point x="695" y="649"/>
      <point x="695" y="651"/>
      <point x="693" y="651" type="curve" smooth="yes"/>
      <point x="692" y="651"/>
      <point x="689" y="649"/>
      <point x="687" y="648" type="curve" smooth="yes"/>
      <point x="453" y="517"/>
      <point x="311" y="120"/>
      <point x="263" y="44" type="curve" smooth="yes"/>
      <point x="247" y="19"/>
      <point x="230" y="0"/>
      <point x="192" y="0" type="curve" smooth="yes"/>
      <point x="97" y="0"/>
      <point x="95" y="126"/>
      <point x="95" y="223" type="curve" smooth="yes"/>
      <point x="95" y="772"/>
      <point x="131" y="1357"/>
      <point x="342" y="1706" type="curve" smooth="yes"/>
      <point x="408" y="1816"/>
      <point x="505" y="1920"/>
    </contour>
  </outline>
</glyph>
<glyph name="l_i" format="1">
  <advance width="1337"/>
  <outline>
    <contour>
      <point x="1204" y="1089" type="curve" smooth="yes"/>
      <point x="1097" y="1089"/>
      <point x="1032" y="1140"/>
      <point x="1032" y="1241" type="curve" smooth="yes"/>
      <point x="1032" y="1345"/>
      <point x="1118" y="1408"/>
      <point x="1228" y="1408" type="curve" smooth="yes"/>
      <point x="1326" y="1408"/>
      <point x="1398" y="1366"/>
      <point x="1398" y="1268" type="curve" smooth="yes"/>
      <point x="1398" y="1155"/>
      <point x="1320" y="1089"/>
    </contour>
    <contour>
      <point x="322" y="461" type="curve" smooth="yes"/>
      <point x="322" y="288"/>
      <point x="364" y="220"/>
      <point x="432" y="220" type="curve" smooth="yes"/>
      <point x="537" y="220"/>
      <point x="704" y="382"/>
      <point x="875" y="578" type="curve"/>
      <point x="901" y="677"/>
      <point x="930" y="772"/>
      <point x="953" y="863" type="curve" smooth="yes"/>
      <point x="969" y="928"/>
      <point x="1056" y="960"/>
      <point x="1135" y="960" type="curve" smooth="yes"/>
      <point x="1183" y="960"/>
      <point x="1207" y="945"/>
      <point x="1207" y="903" type="curve" smooth="yes"/>
      <point x="1207" y="695"/>
      <point x="1073" y="514"/>
      <point x="1073" y="290" type="curve" smooth="yes"/>
      <point x="1073" y="240"/>
      <point x="1078" y="192"/>
      <point x="1124" y="192" type="curve" smooth="yes"/>
      <point x="1247" y="192"/>
      <point x="1364" y="330"/>
      <point x="1437" y="387" type="curve" smooth="yes"/>
      <point x="1453" y="400"/>
      <point x="1464" y="406"/>
      <point x="1474" y="406" type="curve" smooth="yes"/>
      <point x="1503" y="406"/>
      <point x="1510" y="354"/>
      <point x="1510" y="313" type="curve" smooth="yes"/>
      <point x="1510" y="286"/>
      <point x="1507" y="263"/>
      <point x="1507" y="263" type="curve"/>
      <point x="1396" y="149"/>
      <point x="1207" y="0"/>
      <point x="1003" y="0" type="curve" smooth="yes"/>
      <point x="872" y="0"/>
      <point x="817" y="71"/>
      <point x="817" y="201" type="curve" smooth="yes"/>
      <point x="817" y="231"/>
      <point x="819" y="261"/>
      <point x="821" y="290" type="curve"/>
      <point x="670" y="130"/>
      <point x="514" y="0"/>
      <point x="321" y="0" type="curve" smooth="yes"/>
      <point x="131" y="0"/>
      <point x="64" y="320"/>
      <point x="64" y="519" type="curve" smooth="yes"/>
      <point x="64" y="998"/>
      <point x="192" y="1474"/>
      <point x="424" y="1748" type="curve" smooth="yes"/>
      <point x="497" y="1835"/>
      <point x="587" y="1920"/>
      <point x="727" y="1920" type="curve" smooth="yes"/>
      <point x="842" y="1920"/>
      <point x="871" y="1810"/>
      <point x="871" y="1694" type="curve" smooth="yes"/>
      <point x="871" y="1194"/>
      <point x="584" y="836"/>
      <point x="340" y="565" type="curve" smooth="yes"/>
      <point x="324" y="547"/>
      <point x="322" y="498"/>
    </contour>
    <contour>
      <point x="683" y="1593" type="curve" smooth="yes"/>
      <point x="683" y="1620"/>
      <point x="673" y="1641"/>
      <point x="652" y="1641" type="curve" smooth="yes"/>
      <point x="426" y="1641"/>
      <point x="342" y="975"/>
      <point x="342" y="740" type="curve"/>
      <point x="464" y="955"/>
      <point x="587" y="1198"/>
      <point x="658" y="1460" type="curve" smooth="yes"/>
      <point x="671" y="1508"/>
      <point x="683" y="1552"/>
    </contour>
  </outline>
</glyph>
<glyph name="n.fina" format="1">
  <advance width="1046"/>
  <outline>
    <contour>
      <point x="1216" y="235" type="curve" smooth="yes"/>
      <point x="1216" y="73"/>
      <point x="917" y="-21"/>
      <point x="789" y="-21" type="curve" smooth="yes"/>
      <point x="617" y="-21"/>
      <point x="575" y="134"/>
      <point x="575" y="303" type="curve" smooth="yes"/>
      <point x="575" y="397"/>
      <point x="588" y="499"/>
      <point x="602" y="591" type="curve"/>
      <point x="586" y="591" type="line"/>
      <point x="324" y="71" type="line" smooth="yes"/>
      <point x="302" y="27"/>
      <point x="277" y="0"/>
      <point x="221" y="0" type="curve" smooth="yes"/>
      <point x="112" y="0"/>
      <point x="80" y="101"/>
      <point x="94" y="209" type="curve" smooth="yes"/>
      <point x="178" y="852" type="line" smooth="yes"/>
      <point x="186" y="912"/>
      <point x="233" y="960"/>
      <point x="306" y="960" type="curve" smooth="yes"/>
      <point x="379" y="960"/>
      <point x="402" y="911"/>
      <point x="402" y="839" type="curve" smooth="yes"/>
      <point x="402" y="739"/>
      <point x="362" y="640"/>
      <point x="362" y="544" type="curve"/>
      <point x="382" y="544" type="line"/>
      <point x="438" y="647"/>
      <point x="497" y="765"/>
      <point x="556" y="866" type="curve" smooth="yes"/>
      <point x="592" y="926"/>
      <point x="637" y="960"/>
      <point x="720" y="960" type="curve" smooth="yes"/>
      <point x="797" y="960"/>
      <point x="829" y="886"/>
      <point x="829" y="802" type="curve" smooth="yes"/>
      <point x="829" y="636"/>
      <point x="783" y="471"/>
      <point x="783" y="279" type="curve" smooth="yes"/>
      <point x="783" y="202"/>
      <point x="816" y="173"/>
      <point x="864" y="173" type="curve" smooth="yes"/>
      <point x="976" y="173"/>
      <point x="1081" y="263"/>
      <point x="1143" y="308" type="curve" smooth="yes"/>
      <point x="1151" y="314"/>
      <point x="1158" y="316"/>
      <point x="1165" y="316" type="curve" smooth="yes"/>
      <point x="1195" y="316"/>
      <point x="1216" y="269"/>
    </contour>
  </outline>
</glyph>
<glyph name="o_o_s" format="1">
  <advance width="2374"/>
  <outline>
    <contour>
      <point x="291" y="396" type="curve" smooth="yes"/>
      <point x="291" y="287"/>
      <point x="327" y="192"/>
      <point x="436" y="192" type="curve" smooth="yes"/>
      <point x="554" y="192"/>
      <point x="611" y="425"/>
      <point x="611" y="551" type="curve" smooth="yes"/>
      <point x="611" y="650"/>
      <point x="590" y="768"/>
      <point x="494" y="768" type="curve" smooth="yes"/>
      <point x="359" y="768"/>
      <point x="291" y="538"/>
    </contour>
    <contour>
      <point x="1079" y="612" type="curve" smooth="yes"/>
      <point x="1104" y="612"/>
      <point x="1199" y="678"/>
      <point x="1235" y="678" type="curve" smooth="yes"/>
      <point x="1249" y="678"/>
      <point x="1268" y="651"/>
      <point x="1268" y="610" type="curve" smooth="yes"/>
      <point x="1268" y="490"/>
      <point x="1135" y="439"/>
      <point x="1058" y="439" type="curve" smooth="yes"/>
      <point x="937" y="439"/>
      <point x="891" y="607"/>
      <point x="763" y="690" type="curve"/>
      <point x="790" y="645"/>
      <point x="803" y="550"/>
      <point x="803" y="503" type="curve" smooth="yes"/>
      <point x="803" y="246"/>
      <point x="651" y="0"/>
      <point x="397" y="0" type="curve" smooth="yes"/>
      <point x="166" y="0"/>
      <point x="67" y="206"/>
      <point x="67" y="437" type="curve" smooth="yes"/>
      <point x="67" y="740"/>
      <point x="250" y="960"/>
      <point x="565" y="960" type="curve" smooth="yes"/>
      <point x="766" y="960"/>
      <point x="968" y="816"/>
      <point x="1070" y="616" type="curve" smooth="yes"/>
      <point x="1071" y="614"/>
      <point x="1074" y="612"/>
    </contour>
    <contour>
      <point x="1702" y="731" type="curve"/>
      <point x="1932" y="752"/>
      <point x="1970" y="964"/>
      <point x="2131" y="964" type="curve" smooth="yes"/>
      <point x="2225" y="964"/>
      <point x="2257" y="918"/>
      <point x="2257" y="878" type="curve" smooth="yes"/>
      <point x="2257" y="829"/>
      <point x="2138" y="765"/>
      <point x="2045" y="726" type="curve"/>
      <point x="2033" y="711"/>
      <point x="2025" y="699"/>
      <point x="2024" y="692" type="curve"/>
      <point x="2037" y="672"/>
      <point x="2089" y="624"/>
      <point x="2144" y="560" type="curve"/>
      <point x="2229" y="598"/>
      <point x="2316" y="621"/>
      <point x="2394" y="621" type="curve" smooth="yes"/>
      <point x="2471" y="621"/>
      <point x="2526" y="545"/>
      <point x="2603" y="474" type="curve"/>
      <point x="2613" y="468"/>
      <point x="2617" y="458"/>
      <point x="2617" y="446" type="curve" smooth="yes"/>
      <point x="2617" y="415"/>
      <point x="2591" y="372"/>
      <point x="2576" y="372" type="curve" smooth="yes"/>
      <point x="2494" y="372"/>
      <point x="2443" y="412"/>
      <point x="2372" y="412" type="curve" smooth="yes"/>
      <point x="2331" y="412"/>
      <point x="2285" y="411"/>
      <point x="2236" y="405" type="curve"/>
      <point x="2253" y="364"/>
      <point x="2263" y="322"/>
      <point x="2263" y="279" type="curve" smooth="yes"/>
      <point x="2263" y="114"/>
      <point x="2156" y="-9"/>
      <point x="1915" y="-9" type="curve" smooth="yes"/>
      <point x="1843" y="-9"/>
      <point x="1751" y="37"/>
      <point x="1751" y="150" type="curve" smooth="yes"/>
      <point x="1751" y="263"/>
      <point x="1850" y="378"/>
      <point x="1983" y="465" type="curve"/>
      <point x="1945" y="524"/>
      <point x="1904" y="578"/>
      <point x="1867" y="622" type="curve"/>
      <point x="1811" y="588"/>
      <point x="1782" y="568"/>
      <point x="1697" y="562" type="curve"/>
      <point x="1674" y="216"/>
      <point x="1531" y="0"/>
      <point x="1304" y="0" type="curve" smooth="yes"/>
      <point x="1076" y="0"/>
      <point x="973" y="179"/>
      <point x="973" y="383" type="curve" smooth="yes"/>
      <point x="973" y="651"/>
      <point x="1142" y="960"/>
      <point x="1430" y="960" type="curve" smooth="yes"/>
      <point x="1586" y="960"/>
      <point x="1671" y="855"/>
    </contour>
    <contour>
      <point x="1376" y="768" type="curve" smooth="yes"/>
      <point x="1251" y="768"/>
      <point x="1168" y="588"/>
      <point x="1168" y="446" type="curve" smooth="yes"/>
      <point x="1168" y="313"/>
      <point x="1211" y="192"/>
      <point x="1343" y="192" type="curve" smooth="yes"/>
      <point x="1433" y="192"/>
      <point x="1506" y="369"/>
      <point x="1506" y="537" type="curve" smooth="yes"/>
      <point x="1506" y="609"/>
      <point x="1507" y="768"/>
    </contour>
    <contour>
      <point x="1893" y="163" type="curve" smooth="yes"/>
      <point x="1893" y="154"/>
      <point x="1916" y="151"/>
      <point x="1924" y="151" type="curve" smooth="yes"/>
      <point x="1983" y="151"/>
      <point x="2071" y="225"/>
      <point x="2071" y="282" type="curve" smooth="yes"/>
      <point x="2071" y="305"/>
      <point x="2065" y="330"/>
      <point x="2054" y="355" type="curve"/>
      <point x="2001" y="328"/>
      <point x="1893" y="252"/>
    </contour>
  </outline>
</glyph>
<glyph name="s.fina" format="1">
  <advance width="1188"/>
  <outline>
    <contour>
      <point x="424" y="165" type="curve" smooth="yes"/>
      <point x="424" y="154"/>
      <point x="446" y="151"/>
      <point x="455" y="151" type="curve" smooth="yes"/>
      <point x="514" y="151"/>
      <point x="602" y="225"/>
      <point x="602" y="282" type="curve" smooth="yes"/>
      <point x="602" y="372"/>
      <point x="509" y="479"/>
      <point x="438" y="542" type="curve"/>
      <point x="216" y="283" type="line"/>
      <point x="216" y="283"/>
      <point x="175" y="212"/>
      <point x="77" y="212" type="curve" smooth="yes"/>
      <point x="41" y="212"/>
      <point x="28" y="257"/>
      <point x="28" y="313" type="curve" smooth="yes"/>
      <point x="28" y="348"/>
      <point x="67" y="385"/>
      <point x="88" y="411" type="curve"/>
      <point x="178" y="524"/>
      <point x="307" y="708"/>
      <point x="408" y="864" type="curve" smooth="yes"/>
      <point x="436" y="913"/>
      <point x="482" y="960"/>
      <point x="559" y="960" type="curve" smooth="yes"/>
      <point x="656" y="960"/>
      <point x="688" y="925"/>
      <point x="688" y="878" type="curve" smooth="yes"/>
      <point x="688" y="822"/>
      <point x="642" y="750"/>
      <point x="606" y="706" type="curve" smooth="yes"/>
      <point x="594" y="691"/>
      <point x="586" y="679"/>
      <point x="585" y="672" type="curve"/>
      <point x="609" y="632"/>
      <point x="794" y="456"/>
      <point x="794" y="279" type="curve" smooth="yes"/>
      <point x="794" y="114"/>
      <point x="687" y="-9"/>
      <point x="446" y="-9" type="curve" smooth="yes"/>
      <point x="378" y="-9"/>
      <point x="292" y="28"/>
      <point x="292" y="120" type="curve" smooth="yes"/>
      <point x="292" y="168"/>
      <point x="309" y="236"/>
      <point x="376" y="310" type="curve" smooth="yes"/>
      <point x="498" y="482"/>
      <point x="660" y="635"/>
      <point x="884" y="692" type="curve" smooth="yes"/>
      <point x="916" y="698"/>
      <point x="946" y="701"/>
      <point x="975" y="701" type="curve" smooth="yes"/>
      <point x="1078" y="701"/>
      <point x="1151" y="604"/>
      <point x="1254" y="514" type="curve" smooth="yes"/>
      <point x="1264" y="508"/>
      <point x="1268" y="498"/>
      <point x="1268" y="486" type="curve" smooth="yes"/>
      <point x="1268" y="455"/>
      <point x="1242" y="412"/>
      <point x="1227" y="412" type="curve" smooth="yes"/>
      <point x="1117" y="412"/>
      <point x="1049" y="492"/>
      <point x="953" y="492" type="curve" smooth="yes"/>
      <point x="926" y="492"/>
      <point x="897" y="490"/>
      <point x="866" y="484" type="curve" smooth="yes"/>
      <point x="726" y="449"/>
      <point x="424" y="216"/>
    </contour>
  </outline>
</glyph>
